<svg width="643" height="212" viewBox="0 0 643 212" fill="none" xmlns="http://www.w3.org/2000/svg">
<path d="M0 20C0 8.9543 8.95431 0 20 0H622.458C633.504 0 642.458 8.95431 642.458 20V192C642.458 203.046 633.504 212 622.458 212H20C8.95428 212 0 203.046 0 192V20Z" fill="white" fill-opacity="0.15"/>
<g clip-path="url(#clip0_1_226)">
<path d="M69.3819 49.1421L53.8773 35L38.3726 49.1421L53.8773 63.2843L69.3819 49.1421Z" fill="#57B8FF"/>
<path d="M66.281 49.1418L53.8773 37.8281L41.4735 49.1418L53.8773 60.4555L66.281 49.1418Z" fill="white"/>
<path d="M61.6296 49.1424L53.8773 42.0713L46.1249 49.1424L53.8773 56.2134L61.6296 49.1424Z" fill="#57B8FF"/>
</g>
<path d="M95.8436 117L88.3376 104.04H90.0476L96.6896 115.578L103.314 104.04H105.024L97.5356 117H95.8436ZM106.696 117V106.56H108.172V117H106.696ZM106.696 104.616V103.14H108.172V104.616H106.696ZM115.555 117L109.795 106.56H111.523L116.419 115.56L121.315 106.56H123.043L117.265 117H115.555ZM126.751 117C126.355 117 125.989 116.904 125.653 116.712C125.329 116.508 125.065 116.244 124.861 115.92C124.669 115.584 124.573 115.218 124.573 114.822V111.042H133.717V108.738C133.717 108.546 133.645 108.384 133.501 108.252C133.369 108.108 133.207 108.036 133.015 108.036H124.573V106.56H133.015C133.423 106.56 133.789 106.662 134.113 106.866C134.449 107.058 134.713 107.322 134.905 107.658C135.109 107.982 135.211 108.342 135.211 108.738V117H126.751ZM126.751 115.524H133.717V112.518H126.049V114.822C126.049 115.014 126.115 115.182 126.247 115.326C126.391 115.458 126.559 115.524 126.751 115.524ZM136.756 117V106.56H150.544C150.952 106.56 151.318 106.662 151.642 106.866C151.978 107.058 152.242 107.322 152.434 107.658C152.626 107.982 152.722 108.342 152.722 108.738V117H151.264V108.738C151.264 108.546 151.192 108.384 151.048 108.252C150.904 108.108 150.736 108.036 150.544 108.036H146.206C146.014 108.036 145.846 108.108 145.702 108.252C145.57 108.384 145.504 108.546 145.504 108.738V117H144.01V108.738C144.01 108.546 143.938 108.384 143.794 108.252C143.662 108.108 143.5 108.036 143.308 108.036H138.952C138.76 108.036 138.592 108.108 138.448 108.252C138.316 108.384 138.25 108.546 138.25 108.738V117H136.756ZM156.512 117C156.116 117 155.75 116.904 155.414 116.712C155.09 116.508 154.826 116.244 154.622 115.92C154.43 115.584 154.334 115.218 154.334 114.822V106.56H155.81V114.822C155.81 115.014 155.876 115.182 156.008 115.326C156.152 115.458 156.32 115.524 156.512 115.524H162.776C162.968 115.524 163.136 115.458 163.28 115.326C163.424 115.182 163.496 115.014 163.496 114.822V106.56H164.972V114.822C164.972 115.218 164.87 115.584 164.666 115.92C164.474 116.244 164.21 116.508 163.874 116.712C163.55 116.904 163.184 117 162.776 117H156.512ZM168.673 117C168.277 117 167.911 116.904 167.575 116.712C167.251 116.508 166.987 116.244 166.783 115.92C166.591 115.584 166.495 115.218 166.495 114.822V114.678H167.971V114.822C167.971 115.014 168.037 115.182 168.169 115.326C168.313 115.458 168.481 115.524 168.673 115.524H174.937C175.129 115.524 175.291 115.458 175.423 115.326C175.567 115.182 175.639 115.014 175.639 114.822V113.22C175.639 113.028 175.567 112.866 175.423 112.734C175.291 112.59 175.129 112.518 174.937 112.518H168.673C168.277 112.518 167.911 112.422 167.575 112.23C167.251 112.026 166.987 111.762 166.783 111.438C166.591 111.102 166.495 110.736 166.495 110.34V108.738C166.495 108.342 166.591 107.982 166.783 107.658C166.987 107.322 167.251 107.058 167.575 106.866C167.911 106.662 168.277 106.56 168.673 106.56H174.937C175.345 106.56 175.711 106.662 176.035 106.866C176.371 107.058 176.635 107.322 176.827 107.658C177.031 107.982 177.133 108.342 177.133 108.738V108.882H175.639V108.738C175.639 108.546 175.567 108.384 175.423 108.252C175.291 108.108 175.129 108.036 174.937 108.036H168.673C168.481 108.036 168.313 108.108 168.169 108.252C168.037 108.384 167.971 108.546 167.971 108.738V110.34C167.971 110.532 168.037 110.7 168.169 110.844C168.313 110.976 168.481 111.042 168.673 111.042H174.937C175.345 111.042 175.711 111.144 176.035 111.348C176.371 111.54 176.635 111.804 176.827 112.14C177.031 112.464 177.133 112.824 177.133 113.22V114.822C177.133 115.218 177.031 115.584 176.827 115.92C176.635 116.244 176.371 116.508 176.035 116.712C175.711 116.904 175.345 117 174.937 117H168.673ZM183.848 117V106.56H197.636C198.044 106.56 198.41 106.662 198.734 106.866C199.07 107.058 199.334 107.322 199.526 107.658C199.718 107.982 199.814 108.342 199.814 108.738V117H198.356V108.738C198.356 108.546 198.284 108.384 198.14 108.252C197.996 108.108 197.828 108.036 197.636 108.036H193.298C193.106 108.036 192.938 108.108 192.794 108.252C192.662 108.384 192.596 108.546 192.596 108.738V117H191.102V108.738C191.102 108.546 191.03 108.384 190.886 108.252C190.754 108.108 190.592 108.036 190.4 108.036H186.044C185.852 108.036 185.684 108.108 185.54 108.252C185.408 108.384 185.342 108.546 185.342 108.738V117H183.848ZM203.585 117C203.189 117 202.823 116.904 202.487 116.712C202.163 116.508 201.899 116.244 201.695 115.92C201.503 115.584 201.407 115.218 201.407 114.822V111.042H210.551V108.738C210.551 108.546 210.479 108.384 210.335 108.252C210.203 108.108 210.041 108.036 209.849 108.036H201.407V106.56H209.849C210.257 106.56 210.623 106.662 210.947 106.866C211.283 107.058 211.547 107.322 211.739 107.658C211.943 107.982 212.045 108.342 212.045 108.738V117H203.585ZM203.585 115.524H210.551V112.518H202.883V114.822C202.883 115.014 202.949 115.182 203.081 115.326C203.225 115.458 203.393 115.524 203.585 115.524ZM215.633 121.122V119.628H222.149C222.341 119.628 222.503 119.556 222.635 119.412C222.779 119.28 222.851 119.118 222.851 118.926V117H215.885C215.489 117 215.123 116.904 214.787 116.712C214.463 116.508 214.199 116.244 213.995 115.92C213.803 115.584 213.707 115.218 213.707 114.822V108.738C213.707 108.342 213.803 107.982 213.995 107.658C214.199 107.322 214.463 107.058 214.787 106.866C215.123 106.662 215.489 106.56 215.885 106.56H222.149C222.557 106.56 222.923 106.662 223.247 106.866C223.583 107.058 223.847 107.322 224.039 107.658C224.231 107.982 224.327 108.342 224.327 108.738V118.926C224.327 119.334 224.231 119.7 224.039 120.024C223.847 120.36 223.583 120.624 223.247 120.816C222.923 121.02 222.557 121.122 222.149 121.122H215.633ZM215.885 115.524H222.149C222.341 115.524 222.503 115.458 222.635 115.326C222.779 115.182 222.851 115.014 222.851 114.822V108.738C222.851 108.546 222.779 108.384 222.635 108.252C222.503 108.108 222.341 108.036 222.149 108.036H215.885C215.693 108.036 215.525 108.108 215.381 108.252C215.249 108.384 215.183 108.546 215.183 108.738V114.822C215.183 115.014 215.249 115.182 215.381 115.326C215.525 115.458 215.693 115.524 215.885 115.524ZM226.228 117V106.56H234.688C235.084 106.56 235.444 106.662 235.768 106.866C236.104 107.058 236.368 107.322 236.56 107.658C236.764 107.982 236.866 108.342 236.866 108.738V117H235.39V108.738C235.39 108.546 235.318 108.384 235.174 108.252C235.042 108.108 234.88 108.036 234.688 108.036H228.424C228.232 108.036 228.064 108.108 227.92 108.252C227.776 108.384 227.704 108.546 227.704 108.738V117H226.228ZM240.904 117C240.508 117 240.142 116.904 239.806 116.712C239.482 116.508 239.218 116.244 239.014 115.92C238.822 115.584 238.726 115.218 238.726 114.822V111.042H247.87V108.738C247.87 108.546 247.798 108.384 247.654 108.252C247.522 108.108 247.36 108.036 247.168 108.036H238.726V106.56H247.168C247.576 106.56 247.942 106.662 248.266 106.866C248.602 107.058 248.866 107.322 249.058 107.658C249.262 107.982 249.364 108.342 249.364 108.738V117H240.904ZM240.904 115.524H247.87V112.518H240.202V114.822C240.202 115.014 240.268 115.182 240.4 115.326C240.544 115.458 240.712 115.524 240.904 115.524ZM251.826 121.374V119.88H256.236C256.428 119.88 256.59 119.808 256.722 119.664C256.866 119.532 256.938 119.37 256.938 119.178V106.56H258.432V119.178C258.432 119.586 258.33 119.952 258.126 120.276C257.934 120.612 257.67 120.876 257.334 121.068C257.01 121.272 256.644 121.374 256.236 121.374H251.826ZM256.938 104.616V103.14H258.432V104.616H256.938ZM262.631 117C262.235 117 261.869 116.904 261.533 116.712C261.209 116.508 260.945 116.244 260.741 115.92C260.549 115.584 260.453 115.218 260.453 114.822V106.56H261.929V114.822C261.929 115.014 261.995 115.182 262.127 115.326C262.271 115.458 262.439 115.524 262.631 115.524H268.895C269.087 115.524 269.255 115.458 269.399 115.326C269.543 115.182 269.615 115.014 269.615 114.822V106.56H271.091V114.822C271.091 115.218 270.989 115.584 270.785 115.92C270.593 116.244 270.329 116.508 269.993 116.712C269.669 116.904 269.303 117 268.895 117H262.631ZM274.793 117C274.397 117 274.031 116.904 273.695 116.712C273.371 116.508 273.107 116.244 272.903 115.92C272.711 115.584 272.615 115.218 272.615 114.822V114.678H274.091V114.822C274.091 115.014 274.157 115.182 274.289 115.326C274.433 115.458 274.601 115.524 274.793 115.524H281.057C281.249 115.524 281.411 115.458 281.543 115.326C281.687 115.182 281.759 115.014 281.759 114.822V113.22C281.759 113.028 281.687 112.866 281.543 112.734C281.411 112.59 281.249 112.518 281.057 112.518H274.793C274.397 112.518 274.031 112.422 273.695 112.23C273.371 112.026 273.107 111.762 272.903 111.438C272.711 111.102 272.615 110.736 272.615 110.34V108.738C272.615 108.342 272.711 107.982 272.903 107.658C273.107 107.322 273.371 107.058 273.695 106.866C274.031 106.662 274.397 106.56 274.793 106.56H281.057C281.465 106.56 281.831 106.662 282.155 106.866C282.491 107.058 282.755 107.322 282.947 107.658C283.151 107.982 283.253 108.342 283.253 108.738V108.882H281.759V108.738C281.759 108.546 281.687 108.384 281.543 108.252C281.411 108.108 281.249 108.036 281.057 108.036H274.793C274.601 108.036 274.433 108.108 274.289 108.252C274.157 108.384 274.091 108.546 274.091 108.738V110.34C274.091 110.532 274.157 110.7 274.289 110.844C274.433 110.976 274.601 111.042 274.793 111.042H281.057C281.465 111.042 281.831 111.144 282.155 111.348C282.491 111.54 282.755 111.804 282.947 112.14C283.151 112.464 283.253 112.824 283.253 113.22V114.822C283.253 115.218 283.151 115.584 282.947 115.92C282.755 116.244 282.491 116.508 282.155 116.712C281.831 116.904 281.465 117 281.057 117H274.793ZM287.222 117C286.814 117 286.442 116.904 286.106 116.712C285.782 116.508 285.524 116.244 285.332 115.92C285.14 115.584 285.044 115.218 285.044 114.822V103.14H286.52V106.56H291.038V108.036H286.52V114.822C286.52 115.014 286.586 115.182 286.718 115.326C286.862 115.458 287.03 115.524 287.222 115.524H291.038V117H287.222ZM294.569 117C294.173 117 293.807 116.904 293.471 116.712C293.147 116.508 292.883 116.244 292.679 115.92C292.487 115.584 292.391 115.218 292.391 114.822V108.738C292.391 108.342 292.487 107.982 292.679 107.658C292.883 107.322 293.147 107.058 293.471 106.866C293.807 106.662 294.173 106.56 294.569 106.56H300.833C301.241 106.56 301.607 106.662 301.931 106.866C302.267 107.058 302.531 107.322 302.723 107.658C302.927 107.982 303.029 108.342 303.029 108.738V114.822C303.029 115.218 302.927 115.584 302.723 115.92C302.531 116.244 302.267 116.508 301.931 116.712C301.607 116.904 301.241 117 300.833 117H294.569ZM294.569 115.524H300.833C301.025 115.524 301.187 115.458 301.319 115.326C301.463 115.182 301.535 115.014 301.535 114.822V108.738C301.535 108.546 301.463 108.384 301.319 108.252C301.187 108.108 301.025 108.036 300.833 108.036H294.569C294.377 108.036 294.209 108.108 294.065 108.252C293.933 108.384 293.867 108.546 293.867 108.738V114.822C293.867 115.014 293.933 115.182 294.065 115.326C294.209 115.458 294.377 115.524 294.569 115.524ZM304.908 119.358V115.524H306.384V117.288C306.384 117.612 306.318 117.912 306.186 118.188C306.066 118.464 305.892 118.704 305.664 118.908C305.448 119.112 305.196 119.262 304.908 119.358ZM315.435 117C315.039 117 314.673 116.904 314.337 116.712C314.013 116.508 313.749 116.244 313.545 115.92C313.353 115.584 313.257 115.218 313.257 114.822V103.14H314.733V114.822C314.733 115.014 314.799 115.182 314.931 115.326C315.075 115.458 315.243 115.524 315.435 115.524H317.199V117H315.435ZM320.691 117C320.295 117 319.929 116.904 319.593 116.712C319.269 116.508 319.005 116.244 318.801 115.92C318.609 115.584 318.513 115.218 318.513 114.822V111.042H327.657V108.738C327.657 108.546 327.585 108.384 327.441 108.252C327.309 108.108 327.147 108.036 326.955 108.036H318.513V106.56H326.955C327.363 106.56 327.729 106.662 328.053 106.866C328.389 107.058 328.653 107.322 328.845 107.658C329.049 107.982 329.151 108.342 329.151 108.738V117H320.691ZM320.691 115.524H327.657V112.518H319.989V114.822C319.989 115.014 320.055 115.182 320.187 115.326C320.331 115.458 320.499 115.524 320.691 115.524ZM332.995 117C332.599 117 332.233 116.904 331.897 116.712C331.573 116.508 331.309 116.244 331.105 115.92C330.913 115.584 330.817 115.218 330.817 114.822V108.738C330.817 108.342 330.913 107.982 331.105 107.658C331.309 107.322 331.573 107.058 331.897 106.866C332.233 106.662 332.599 106.56 332.995 106.56H341.419V108.036H332.995C332.803 108.036 332.635 108.108 332.491 108.252C332.359 108.384 332.293 108.546 332.293 108.738V114.822C332.293 115.014 332.359 115.182 332.491 115.326C332.635 115.458 332.803 115.524 332.995 115.524H341.455V117H332.995ZM343.351 117V106.56H344.827V117H343.351ZM343.351 104.616V103.14H344.827V104.616H343.351ZM346.867 117V106.56H355.327C355.723 106.56 356.083 106.662 356.407 106.866C356.743 107.058 357.007 107.322 357.199 107.658C357.403 107.982 357.505 108.342 357.505 108.738V117H356.029V108.738C356.029 108.546 355.957 108.384 355.813 108.252C355.681 108.108 355.519 108.036 355.327 108.036H349.063C348.871 108.036 348.703 108.108 348.559 108.252C348.415 108.384 348.343 108.546 348.343 108.738V117H346.867ZM359.364 117V106.56H360.84V117H359.364ZM359.364 104.616V103.14H360.84V104.616H359.364ZM364.654 117C364.258 117 363.892 116.904 363.556 116.712C363.232 116.508 362.968 116.244 362.764 115.92C362.572 115.584 362.476 115.218 362.476 114.822V111.042H371.62V108.738C371.62 108.546 371.548 108.384 371.404 108.252C371.272 108.108 371.11 108.036 370.918 108.036H362.476V106.56H370.918C371.326 106.56 371.692 106.662 372.016 106.866C372.352 107.058 372.616 107.322 372.808 107.658C373.012 107.982 373.114 108.342 373.114 108.738V117H364.654ZM364.654 115.524H371.62V112.518H363.952V114.822C363.952 115.014 364.018 115.182 364.15 115.326C364.294 115.458 364.462 115.524 364.654 115.524ZM382.038 117C381.642 117 381.276 116.904 380.94 116.712C380.616 116.508 380.352 116.244 380.148 115.92C379.956 115.584 379.86 115.218 379.86 114.822V108.738C379.86 108.342 379.956 107.982 380.148 107.658C380.352 107.322 380.616 107.058 380.94 106.866C381.276 106.662 381.642 106.56 382.038 106.56H388.302C388.71 106.56 389.076 106.662 389.4 106.866C389.736 107.058 390 107.322 390.192 107.658C390.396 107.982 390.498 108.342 390.498 108.738V112.518H381.336V114.822C381.336 115.014 381.402 115.182 381.534 115.326C381.678 115.458 381.846 115.524 382.038 115.524H390.498V117H382.038ZM381.336 111.042H389.004V108.738C389.004 108.546 388.932 108.384 388.788 108.252C388.656 108.108 388.494 108.036 388.302 108.036H382.038C381.846 108.036 381.678 108.108 381.534 108.252C381.402 108.384 381.336 108.546 381.336 108.738V111.042ZM394.069 121.122V119.628H400.585C400.777 119.628 400.939 119.556 401.071 119.412C401.215 119.28 401.287 119.118 401.287 118.926V117H394.321C393.925 117 393.559 116.904 393.223 116.712C392.899 116.508 392.635 116.244 392.431 115.92C392.239 115.584 392.143 115.218 392.143 114.822V108.738C392.143 108.342 392.239 107.982 392.431 107.658C392.635 107.322 392.899 107.058 393.223 106.866C393.559 106.662 393.925 106.56 394.321 106.56H400.585C400.993 106.56 401.359 106.662 401.683 106.866C402.019 107.058 402.283 107.322 402.475 107.658C402.667 107.982 402.763 108.342 402.763 108.738V118.926C402.763 119.334 402.667 119.7 402.475 120.024C402.283 120.36 402.019 120.624 401.683 120.816C401.359 121.02 400.993 121.122 400.585 121.122H394.069ZM394.321 115.524H400.585C400.777 115.524 400.939 115.458 401.071 115.326C401.215 115.182 401.287 115.014 401.287 114.822V108.738C401.287 108.546 401.215 108.384 401.071 108.252C400.939 108.108 400.777 108.036 400.585 108.036H394.321C394.129 108.036 393.961 108.108 393.817 108.252C393.685 108.384 393.619 108.546 393.619 108.738V114.822C393.619 115.014 393.685 115.182 393.817 115.326C393.961 115.458 394.129 115.524 394.321 115.524ZM406.524 117C406.128 117 405.762 116.904 405.426 116.712C405.102 116.508 404.838 116.244 404.634 115.92C404.442 115.584 404.346 115.218 404.346 114.822V108.738C404.346 108.342 404.442 107.982 404.634 107.658C404.838 107.322 405.102 107.058 405.426 106.866C405.762 106.662 406.128 106.56 406.524 106.56H412.788C413.196 106.56 413.562 106.662 413.886 106.866C414.222 107.058 414.486 107.322 414.678 107.658C414.882 107.982 414.984 108.342 414.984 108.738V112.518H405.822V114.822C405.822 115.014 405.888 115.182 406.02 115.326C406.164 115.458 406.332 115.524 406.524 115.524H414.984V117H406.524ZM405.822 111.042H413.49V108.738C413.49 108.546 413.418 108.384 413.274 108.252C413.142 108.108 412.98 108.036 412.788 108.036H406.524C406.332 108.036 406.164 108.108 406.02 108.252C405.888 108.384 405.822 108.546 405.822 108.738V111.042ZM419.023 117C418.615 117 418.243 116.904 417.907 116.712C417.583 116.508 417.325 116.244 417.133 115.92C416.941 115.584 416.845 115.218 416.845 114.822V103.14H418.321V106.56H422.839V108.036H418.321V114.822C418.321 115.014 418.387 115.182 418.519 115.326C418.663 115.458 418.831 115.524 419.023 115.524H422.839V117H419.023ZM431.274 117C430.878 117 430.512 116.904 430.176 116.712C429.852 116.508 429.588 116.244 429.384 115.92C429.192 115.584 429.096 115.218 429.096 114.822V108.738C429.096 108.342 429.192 107.982 429.384 107.658C429.588 107.322 429.852 107.058 430.176 106.866C430.512 106.662 430.878 106.56 431.274 106.56H439.698V108.036H431.274C431.082 108.036 430.914 108.108 430.77 108.252C430.638 108.384 430.572 108.546 430.572 108.738V114.822C430.572 115.014 430.638 115.182 430.77 115.326C430.914 115.458 431.082 115.524 431.274 115.524H439.734V117H431.274ZM443.79 117C443.394 117 443.028 116.904 442.692 116.712C442.368 116.508 442.104 116.244 441.9 115.92C441.708 115.584 441.612 115.218 441.612 114.822V108.738C441.612 108.342 441.708 107.982 441.9 107.658C442.104 107.322 442.368 107.058 442.692 106.866C443.028 106.662 443.394 106.56 443.79 106.56H450.054C450.462 106.56 450.828 106.662 451.152 106.866C451.488 107.058 451.752 107.322 451.944 107.658C452.148 107.982 452.25 108.342 452.25 108.738V114.822C452.25 115.218 452.148 115.584 451.944 115.92C451.752 116.244 451.488 116.508 451.152 116.712C450.828 116.904 450.462 117 450.054 117H443.79ZM443.79 115.524H450.054C450.246 115.524 450.408 115.458 450.54 115.326C450.684 115.182 450.756 115.014 450.756 114.822V108.738C450.756 108.546 450.684 108.384 450.54 108.252C450.408 108.108 450.246 108.036 450.054 108.036H443.79C443.598 108.036 443.43 108.108 443.286 108.252C443.154 108.384 443.088 108.546 443.088 108.738V114.822C443.088 115.014 443.154 115.182 443.286 115.326C443.43 115.458 443.598 115.524 443.79 115.524ZM456.253 117C455.857 117 455.491 116.904 455.155 116.712C454.831 116.508 454.567 116.244 454.363 115.92C454.171 115.584 454.075 115.218 454.075 114.822V108.738C454.075 108.342 454.171 107.982 454.363 107.658C454.567 107.322 454.831 107.058 455.155 106.866C455.491 106.662 455.857 106.56 456.253 106.56H462.517C462.925 106.56 463.291 106.662 463.615 106.866C463.951 107.058 464.215 107.322 464.407 107.658C464.611 107.982 464.713 108.342 464.713 108.738V112.518H455.551V114.822C455.551 115.014 455.617 115.182 455.749 115.326C455.893 115.458 456.061 115.524 456.253 115.524H464.713V117H456.253ZM455.551 111.042H463.219V108.738C463.219 108.546 463.147 108.384 463.003 108.252C462.871 108.108 462.709 108.036 462.517 108.036H456.253C456.061 108.036 455.893 108.108 455.749 108.252C455.617 108.384 455.551 108.546 455.551 108.738V111.042ZM468.364 117C467.968 117 467.602 116.904 467.266 116.712C466.942 116.508 466.678 116.244 466.474 115.92C466.282 115.584 466.186 115.218 466.186 114.822V108.738C466.186 108.342 466.282 107.982 466.474 107.658C466.678 107.322 466.942 107.058 467.266 106.866C467.602 106.662 467.968 106.56 468.364 106.56H476.788V108.036H468.364C468.172 108.036 468.004 108.108 467.86 108.252C467.728 108.384 467.662 108.546 467.662 108.738V114.822C467.662 115.014 467.728 115.182 467.86 115.326C468.004 115.458 468.172 115.524 468.364 115.524H476.824V117H468.364ZM480.423 117C480.027 117 479.661 116.904 479.325 116.712C479.001 116.508 478.737 116.244 478.533 115.92C478.341 115.584 478.245 115.218 478.245 114.822V108.738C478.245 108.342 478.341 107.982 478.533 107.658C478.737 107.322 479.001 107.058 479.325 106.866C479.661 106.662 480.027 106.56 480.423 106.56H486.687C487.095 106.56 487.461 106.662 487.785 106.866C488.121 107.058 488.385 107.322 488.577 107.658C488.781 107.982 488.883 108.342 488.883 108.738V112.518H479.721V114.822C479.721 115.014 479.787 115.182 479.919 115.326C480.063 115.458 480.231 115.524 480.423 115.524H488.883V117H480.423ZM479.721 111.042H487.389V108.738C487.389 108.546 487.317 108.384 487.173 108.252C487.041 108.108 486.879 108.036 486.687 108.036H480.423C480.231 108.036 480.063 108.108 479.919 108.252C479.787 108.384 479.721 108.546 479.721 108.738V111.042ZM492.922 117C492.514 117 492.142 116.904 491.806 116.712C491.482 116.508 491.224 116.244 491.032 115.92C490.84 115.584 490.744 115.218 490.744 114.822V103.14H492.22V106.56H496.738V108.036H492.22V114.822C492.22 115.014 492.286 115.182 492.418 115.326C492.562 115.458 492.73 115.524 492.922 115.524H496.738V117H492.922ZM500.304 117C499.908 117 499.542 116.904 499.206 116.712C498.882 116.508 498.618 116.244 498.414 115.92C498.222 115.584 498.126 115.218 498.126 114.822V106.56H499.602V114.822C499.602 115.014 499.668 115.182 499.8 115.326C499.944 115.458 500.112 115.524 500.304 115.524H506.568C506.76 115.524 506.928 115.458 507.072 115.326C507.216 115.182 507.288 115.014 507.288 114.822V106.56H508.764V114.822C508.764 115.218 508.662 115.584 508.458 115.92C508.266 116.244 508.002 116.508 507.666 116.712C507.342 116.904 506.976 117 506.568 117H500.304ZM510.624 117V108.738C510.624 108.342 510.72 107.982 510.912 107.658C511.116 107.322 511.38 107.058 511.704 106.866C512.04 106.662 512.406 106.56 512.802 106.56H518.67V108.036H512.802C512.61 108.036 512.442 108.108 512.298 108.252C512.166 108.384 512.1 108.546 512.1 108.738V117H510.624ZM526.845 117C526.449 117 526.083 116.904 525.747 116.712C525.423 116.508 525.159 116.244 524.955 115.92C524.763 115.584 524.667 115.218 524.667 114.822V114.678H526.143V114.822C526.143 115.014 526.209 115.182 526.341 115.326C526.485 115.458 526.653 115.524 526.845 115.524H533.109C533.301 115.524 533.463 115.458 533.595 115.326C533.739 115.182 533.811 115.014 533.811 114.822V113.22C533.811 113.028 533.739 112.866 533.595 112.734C533.463 112.59 533.301 112.518 533.109 112.518H526.845C526.449 112.518 526.083 112.422 525.747 112.23C525.423 112.026 525.159 111.762 524.955 111.438C524.763 111.102 524.667 110.736 524.667 110.34V108.738C524.667 108.342 524.763 107.982 524.955 107.658C525.159 107.322 525.423 107.058 525.747 106.866C526.083 106.662 526.449 106.56 526.845 106.56H533.109C533.517 106.56 533.883 106.662 534.207 106.866C534.543 107.058 534.807 107.322 534.999 107.658C535.203 107.982 535.305 108.342 535.305 108.738V108.882H533.811V108.738C533.811 108.546 533.739 108.384 533.595 108.252C533.463 108.108 533.301 108.036 533.109 108.036H526.845C526.653 108.036 526.485 108.108 526.341 108.252C526.209 108.384 526.143 108.546 526.143 108.738V110.34C526.143 110.532 526.209 110.7 526.341 110.844C526.485 110.976 526.653 111.042 526.845 111.042H533.109C533.517 111.042 533.883 111.144 534.207 111.348C534.543 111.54 534.807 111.804 534.999 112.14C535.203 112.464 535.305 112.824 535.305 113.22V114.822C535.305 115.218 535.203 115.584 534.999 115.92C534.807 116.244 534.543 116.508 534.207 116.712C533.883 116.904 533.517 117 533.109 117H526.845ZM538.976 117C538.58 117 538.214 116.904 537.878 116.712C537.554 116.508 537.29 116.244 537.086 115.92C536.894 115.584 536.798 115.218 536.798 114.822V108.738C536.798 108.342 536.894 107.982 537.086 107.658C537.29 107.322 537.554 107.058 537.878 106.866C538.214 106.662 538.58 106.56 538.976 106.56H545.24C545.648 106.56 546.014 106.662 546.338 106.866C546.674 107.058 546.938 107.322 547.13 107.658C547.334 107.982 547.436 108.342 547.436 108.738V112.518H538.274V114.822C538.274 115.014 538.34 115.182 538.472 115.326C538.616 115.458 538.784 115.524 538.976 115.524H547.436V117H538.976ZM538.274 111.042H545.942V108.738C545.942 108.546 545.87 108.384 545.726 108.252C545.594 108.108 545.432 108.036 545.24 108.036H538.976C538.784 108.036 538.616 108.108 538.472 108.252C538.34 108.384 538.274 108.546 538.274 108.738V111.042ZM550.952 117C550.544 117 550.172 116.904 549.836 116.712C549.512 116.508 549.248 116.244 549.044 115.92C548.852 115.584 548.756 115.218 548.756 114.822V108.738C548.756 108.342 548.852 107.982 549.044 107.658C549.248 107.322 549.512 107.058 549.836 106.866C550.172 106.662 550.544 106.56 550.952 106.56H557.918V103.14H559.394V117H550.952ZM550.952 115.524H557.216C557.408 115.524 557.57 115.458 557.702 115.326C557.846 115.182 557.918 115.014 557.918 114.822V108.738C557.918 108.546 557.846 108.384 557.702 108.252C557.57 108.108 557.408 108.036 557.216 108.036H550.952C550.76 108.036 550.592 108.108 550.448 108.252C550.316 108.384 550.25 108.546 550.25 108.738V114.822C550.25 115.014 550.316 115.182 550.448 115.326C550.592 115.458 550.76 115.524 550.952 115.524ZM561.32 119.358V115.524H562.796V117.288C562.796 117.612 562.73 117.912 562.598 118.188C562.478 118.464 562.304 118.704 562.076 118.908C561.86 119.112 561.608 119.262 561.32 119.358ZM90.8036 145C90.4076 145 90.0416 144.904 89.7056 144.712C89.3816 144.508 89.1176 144.244 88.9136 143.92C88.7216 143.584 88.6256 143.218 88.6256 142.822V136.738C88.6256 136.342 88.7216 135.982 88.9136 135.658C89.1176 135.322 89.3816 135.058 89.7056 134.866C90.0416 134.662 90.4076 134.56 90.8036 134.56H99.2276V136.036H90.8036C90.6116 136.036 90.4436 136.108 90.2996 136.252C90.1676 136.384 90.1016 136.546 90.1016 136.738V142.822C90.1016 143.014 90.1676 143.182 90.2996 143.326C90.4436 143.458 90.6116 143.524 90.8036 143.524H99.2636V145H90.8036ZM103.319 145C102.923 145 102.557 144.904 102.221 144.712C101.897 144.508 101.633 144.244 101.429 143.92C101.237 143.584 101.141 143.218 101.141 142.822V136.738C101.141 136.342 101.237 135.982 101.429 135.658C101.633 135.322 101.897 135.058 102.221 134.866C102.557 134.662 102.923 134.56 103.319 134.56H109.583C109.991 134.56 110.357 134.662 110.681 134.866C111.017 135.058 111.281 135.322 111.473 135.658C111.677 135.982 111.779 136.342 111.779 136.738V142.822C111.779 143.218 111.677 143.584 111.473 143.92C111.281 144.244 111.017 144.508 110.681 144.712C110.357 144.904 109.991 145 109.583 145H103.319ZM103.319 143.524H109.583C109.775 143.524 109.937 143.458 110.069 143.326C110.213 143.182 110.285 143.014 110.285 142.822V136.738C110.285 136.546 110.213 136.384 110.069 136.252C109.937 136.108 109.775 136.036 109.583 136.036H103.319C103.127 136.036 102.959 136.108 102.815 136.252C102.683 136.384 102.617 136.546 102.617 136.738V142.822C102.617 143.014 102.683 143.182 102.815 143.326C102.959 143.458 103.127 143.524 103.319 143.524ZM113.394 145V134.56H121.854C122.25 134.56 122.61 134.662 122.934 134.866C123.27 135.058 123.534 135.322 123.726 135.658C123.93 135.982 124.032 136.342 124.032 136.738V145H122.556V136.738C122.556 136.546 122.484 136.384 122.34 136.252C122.208 136.108 122.046 136.036 121.854 136.036H115.59C115.398 136.036 115.23 136.108 115.086 136.252C114.942 136.384 114.87 136.546 114.87 136.738V145H113.394ZM131.094 145L125.334 134.56H127.062L131.958 143.56L136.854 134.56H138.582L132.804 145H131.094ZM142.29 145C141.894 145 141.528 144.904 141.192 144.712C140.868 144.508 140.604 144.244 140.4 143.92C140.208 143.584 140.112 143.218 140.112 142.822V139.042H149.256V136.738C149.256 136.546 149.184 136.384 149.04 136.252C148.908 136.108 148.746 136.036 148.554 136.036H140.112V134.56H148.554C148.962 134.56 149.328 134.662 149.652 134.866C149.988 135.058 150.252 135.322 150.444 135.658C150.648 135.982 150.75 136.342 150.75 136.738V145H142.29ZM142.29 143.524H149.256V140.518H141.588V142.822C141.588 143.014 141.654 143.182 141.786 143.326C141.93 143.458 142.098 143.524 142.29 143.524ZM154.613 145C154.217 145 153.851 144.904 153.515 144.712C153.191 144.508 152.927 144.244 152.723 143.92C152.531 143.584 152.435 143.218 152.435 142.822V131.14H153.911V142.822C153.911 143.014 153.977 143.182 154.109 143.326C154.253 143.458 154.421 143.524 154.613 143.524H156.377V145H154.613ZM160.044 145C159.648 145 159.282 144.904 158.946 144.712C158.622 144.508 158.358 144.244 158.154 143.92C157.962 143.584 157.866 143.218 157.866 142.822V131.14H159.342V142.822C159.342 143.014 159.408 143.182 159.54 143.326C159.684 143.458 159.852 143.524 160.044 143.524H161.808V145H160.044ZM163.298 145V134.56H164.774V145H163.298ZM163.298 132.616V131.14H164.774V132.616H163.298ZM169.148 145C168.752 145 168.386 144.904 168.05 144.712C167.726 144.508 167.462 144.244 167.258 143.92C167.066 143.584 166.97 143.218 166.97 142.822V142.678H168.446V142.822C168.446 143.014 168.512 143.182 168.644 143.326C168.788 143.458 168.956 143.524 169.148 143.524H175.412C175.604 143.524 175.766 143.458 175.898 143.326C176.042 143.182 176.114 143.014 176.114 142.822V141.22C176.114 141.028 176.042 140.866 175.898 140.734C175.766 140.59 175.604 140.518 175.412 140.518H169.148C168.752 140.518 168.386 140.422 168.05 140.23C167.726 140.026 167.462 139.762 167.258 139.438C167.066 139.102 166.97 138.736 166.97 138.34V136.738C166.97 136.342 167.066 135.982 167.258 135.658C167.462 135.322 167.726 135.058 168.05 134.866C168.386 134.662 168.752 134.56 169.148 134.56H175.412C175.82 134.56 176.186 134.662 176.51 134.866C176.846 135.058 177.11 135.322 177.302 135.658C177.506 135.982 177.608 136.342 177.608 136.738V136.882H176.114V136.738C176.114 136.546 176.042 136.384 175.898 136.252C175.766 136.108 175.604 136.036 175.412 136.036H169.148C168.956 136.036 168.788 136.108 168.644 136.252C168.512 136.384 168.446 136.546 168.446 136.738V138.34C168.446 138.532 168.512 138.7 168.644 138.844C168.788 138.976 168.956 139.042 169.148 139.042H175.412C175.82 139.042 176.186 139.144 176.51 139.348C176.846 139.54 177.11 139.804 177.302 140.14C177.506 140.464 177.608 140.824 177.608 141.22V142.822C177.608 143.218 177.506 143.584 177.302 143.92C177.11 144.244 176.846 144.508 176.51 144.712C176.186 144.904 175.82 145 175.412 145H169.148ZM186.464 145C186.068 145 185.702 144.904 185.366 144.712C185.042 144.508 184.778 144.244 184.574 143.92C184.382 143.584 184.286 143.218 184.286 142.822V139.042H193.43V136.738C193.43 136.546 193.358 136.384 193.214 136.252C193.082 136.108 192.92 136.036 192.728 136.036H184.286V134.56H192.728C193.136 134.56 193.502 134.662 193.826 134.866C194.162 135.058 194.426 135.322 194.618 135.658C194.822 135.982 194.924 136.342 194.924 136.738V145H186.464ZM186.464 143.524H193.43V140.518H185.762V142.822C185.762 143.014 185.828 143.182 185.96 143.326C186.104 143.458 186.272 143.524 186.464 143.524ZM198.98 145C198.572 145 198.2 144.904 197.864 144.712C197.54 144.508 197.282 144.244 197.09 143.92C196.898 143.584 196.802 143.218 196.802 142.822V131.14H198.278V134.56H202.796V136.036H198.278V142.822C198.278 143.014 198.344 143.182 198.476 143.326C198.62 143.458 198.788 143.524 198.98 143.524H202.796V145H198.98ZM211.267 145C210.859 145 210.487 144.904 210.151 144.712C209.827 144.508 209.569 144.244 209.377 143.92C209.185 143.584 209.089 143.218 209.089 142.822V131.14H210.565V134.56H215.083V136.036H210.565V142.822C210.565 143.014 210.631 143.182 210.763 143.326C210.907 143.458 211.075 143.524 211.267 143.524H215.083V145H211.267ZM218.614 145C218.218 145 217.852 144.904 217.516 144.712C217.192 144.508 216.928 144.244 216.724 143.92C216.532 143.584 216.436 143.218 216.436 142.822V136.738C216.436 136.342 216.532 135.982 216.724 135.658C216.928 135.322 217.192 135.058 217.516 134.866C217.852 134.662 218.218 134.56 218.614 134.56H224.878C225.286 134.56 225.652 134.662 225.976 134.866C226.312 135.058 226.576 135.322 226.768 135.658C226.972 135.982 227.074 136.342 227.074 136.738V140.518H217.912V142.822C217.912 143.014 217.978 143.182 218.11 143.326C218.254 143.458 218.422 143.524 218.614 143.524H227.074V145H218.614ZM217.912 139.042H225.58V136.738C225.58 136.546 225.508 136.384 225.364 136.252C225.232 136.108 225.07 136.036 224.878 136.036H218.614C218.422 136.036 218.254 136.108 218.11 136.252C217.978 136.384 217.912 136.546 217.912 136.738V139.042ZM230.744 145C230.348 145 229.982 144.904 229.646 144.712C229.322 144.508 229.058 144.244 228.854 143.92C228.662 143.584 228.566 143.218 228.566 142.822V131.14H230.042V142.822C230.042 143.014 230.108 143.182 230.24 143.326C230.384 143.458 230.552 143.524 230.744 143.524H232.508V145H230.744ZM236.175 145C235.779 145 235.413 144.904 235.077 144.712C234.753 144.508 234.489 144.244 234.285 143.92C234.093 143.584 233.997 143.218 233.997 142.822V131.14H235.473V142.822C235.473 143.014 235.539 143.182 235.671 143.326C235.815 143.458 235.983 143.524 236.175 143.524H237.939V145H236.175ZM241.625 145C241.229 145 240.863 144.904 240.527 144.712C240.203 144.508 239.939 144.244 239.735 143.92C239.543 143.584 239.447 143.218 239.447 142.822V134.56H240.923V142.822C240.923 143.014 240.989 143.182 241.121 143.326C241.265 143.458 241.433 143.524 241.625 143.524H247.889C248.081 143.524 248.249 143.458 248.393 143.326C248.537 143.182 248.609 143.014 248.609 142.822V134.56H250.085V142.822C250.085 143.218 249.983 143.584 249.779 143.92C249.587 144.244 249.323 144.508 248.987 144.712C248.663 144.904 248.297 145 247.889 145H241.625ZM253.787 145C253.391 145 253.025 144.904 252.689 144.712C252.365 144.508 252.101 144.244 251.897 143.92C251.705 143.584 251.609 143.218 251.609 142.822V142.678H253.085V142.822C253.085 143.014 253.151 143.182 253.283 143.326C253.427 143.458 253.595 143.524 253.787 143.524H260.051C260.243 143.524 260.405 143.458 260.537 143.326C260.681 143.182 260.753 143.014 260.753 142.822V141.22C260.753 141.028 260.681 140.866 260.537 140.734C260.405 140.59 260.243 140.518 260.051 140.518H253.787C253.391 140.518 253.025 140.422 252.689 140.23C252.365 140.026 252.101 139.762 251.897 139.438C251.705 139.102 251.609 138.736 251.609 138.34V136.738C251.609 136.342 251.705 135.982 251.897 135.658C252.101 135.322 252.365 135.058 252.689 134.866C253.025 134.662 253.391 134.56 253.787 134.56H260.051C260.459 134.56 260.825 134.662 261.149 134.866C261.485 135.058 261.749 135.322 261.941 135.658C262.145 135.982 262.247 136.342 262.247 136.738V136.882H260.753V136.738C260.753 136.546 260.681 136.384 260.537 136.252C260.405 136.108 260.243 136.036 260.051 136.036H253.787C253.595 136.036 253.427 136.108 253.283 136.252C253.151 136.384 253.085 136.546 253.085 136.738V138.34C253.085 138.532 253.151 138.7 253.283 138.844C253.427 138.976 253.595 139.042 253.787 139.042H260.051C260.459 139.042 260.825 139.144 261.149 139.348C261.485 139.54 261.749 139.804 261.941 140.14C262.145 140.464 262.247 140.824 262.247 141.22V142.822C262.247 143.218 262.145 143.584 261.941 143.92C261.749 144.244 261.485 144.508 261.149 144.712C260.825 144.904 260.459 145 260.051 145H253.787ZM264.057 145V143.524H265.533V145H264.057ZM275.007 145C274.611 145 274.245 144.904 273.909 144.712C273.585 144.52 273.327 144.262 273.135 143.938C272.943 143.602 272.847 143.236 272.847 142.84V134.2C272.847 133.804 272.943 133.444 273.135 133.12C273.327 132.784 273.585 132.52 273.909 132.328C274.245 132.136 274.611 132.04 275.007 132.04H285.771V133.498H275.007C274.815 133.498 274.647 133.57 274.503 133.714C274.371 133.846 274.305 134.008 274.305 134.2V142.84C274.305 143.032 274.371 143.2 274.503 143.344C274.647 143.476 274.815 143.542 275.007 143.542H285.771V145H275.007ZM289.771 145C289.375 145 289.009 144.904 288.673 144.712C288.349 144.508 288.085 144.244 287.881 143.92C287.689 143.584 287.593 143.218 287.593 142.822V134.56H289.069V142.822C289.069 143.014 289.135 143.182 289.267 143.326C289.411 143.458 289.579 143.524 289.771 143.524H296.035C296.227 143.524 296.395 143.458 296.539 143.326C296.683 143.182 296.755 143.014 296.755 142.822V134.56H298.231V142.822C298.231 143.218 298.129 143.584 297.925 143.92C297.733 144.244 297.469 144.508 297.133 144.712C296.809 144.904 296.443 145 296.035 145H289.771ZM300.091 145V136.738C300.091 136.342 300.187 135.982 300.379 135.658C300.583 135.322 300.847 135.058 301.171 134.866C301.507 134.662 301.873 134.56 302.269 134.56H308.137V136.036H302.269C302.077 136.036 301.909 136.108 301.765 136.252C301.633 136.384 301.567 136.546 301.567 136.738V145H300.091ZM311.48 145C311.084 145 310.718 144.904 310.382 144.712C310.058 144.508 309.794 144.244 309.59 143.92C309.398 143.584 309.302 143.218 309.302 142.822V139.042H318.446V136.738C318.446 136.546 318.374 136.384 318.23 136.252C318.098 136.108 317.936 136.036 317.744 136.036H309.302V134.56H317.744C318.152 134.56 318.518 134.662 318.842 134.866C319.178 135.058 319.442 135.322 319.634 135.658C319.838 135.982 319.94 136.342 319.94 136.738V145H311.48ZM311.48 143.524H318.446V140.518H310.778V142.822C310.778 143.014 310.844 143.182 310.976 143.326C311.12 143.458 311.288 143.524 311.48 143.524ZM321.379 145V131.14H322.855V134.56H329.839C330.235 134.56 330.595 134.662 330.919 134.866C331.255 135.058 331.519 135.322 331.711 135.658C331.915 135.982 332.017 136.342 332.017 136.738V142.822C332.017 143.218 331.915 143.584 331.711 143.92C331.519 144.244 331.255 144.508 330.919 144.712C330.595 144.904 330.235 145 329.839 145H321.379ZM323.575 143.524H329.839C330.031 143.524 330.193 143.458 330.325 143.326C330.469 143.182 330.541 143.014 330.541 142.822V136.738C330.541 136.546 330.469 136.384 330.325 136.252C330.193 136.108 330.031 136.036 329.839 136.036H323.575C323.383 136.036 323.215 136.108 323.071 136.252C322.927 136.384 322.855 136.546 322.855 136.738V142.822C322.855 143.014 322.927 143.182 323.071 143.326C323.215 143.458 323.383 143.524 323.575 143.524ZM333.349 145V134.56H334.825V145H333.349ZM333.349 132.616V131.14H334.825V132.616H333.349ZM339.289 145C338.881 145 338.509 144.904 338.173 144.712C337.849 144.508 337.591 144.244 337.399 143.92C337.207 143.584 337.111 143.218 337.111 142.822V131.14H338.587V134.56H343.105V136.036H338.587V142.822C338.587 143.014 338.653 143.182 338.785 143.326C338.929 143.458 339.097 143.524 339.289 143.524H343.105V145H339.289ZM346.672 145C346.276 145 345.91 144.904 345.574 144.712C345.25 144.508 344.986 144.244 344.782 143.92C344.59 143.584 344.494 143.218 344.494 142.822V134.56H345.97V142.822C345.97 143.014 346.036 143.182 346.168 143.326C346.312 143.458 346.48 143.524 346.672 143.524H352.936C353.128 143.524 353.296 143.458 353.44 143.326C353.584 143.182 353.656 143.014 353.656 142.822V134.56H355.132V142.822C355.132 143.218 355.03 143.584 354.826 143.92C354.634 144.244 354.37 144.508 354.034 144.712C353.71 144.904 353.344 145 352.936 145H346.672ZM356.991 145V136.738C356.991 136.342 357.087 135.982 357.279 135.658C357.483 135.322 357.747 135.058 358.071 134.866C358.407 134.662 358.773 134.56 359.169 134.56H365.037V136.036H359.169C358.977 136.036 358.809 136.108 358.665 136.252C358.533 136.384 358.467 136.546 358.467 136.738V145H356.991ZM371.143 145V134.56H379.603C379.999 134.56 380.359 134.662 380.683 134.866C381.019 135.058 381.283 135.322 381.475 135.658C381.679 135.982 381.781 136.342 381.781 136.738V145H380.305V136.738C380.305 136.546 380.233 136.384 380.089 136.252C379.957 136.108 379.795 136.036 379.603 136.036H373.339C373.147 136.036 372.979 136.108 372.835 136.252C372.691 136.384 372.619 136.546 372.619 136.738V145H371.143ZM385.536 145C385.14 145 384.774 144.904 384.438 144.712C384.114 144.508 383.85 144.244 383.646 143.92C383.454 143.584 383.358 143.218 383.358 142.822V136.738C383.358 136.342 383.454 135.982 383.646 135.658C383.85 135.322 384.114 135.058 384.438 134.866C384.774 134.662 385.14 134.56 385.536 134.56H391.8C392.208 134.56 392.574 134.662 392.898 134.866C393.234 135.058 393.498 135.322 393.69 135.658C393.894 135.982 393.996 136.342 393.996 136.738V142.822C393.996 143.218 393.894 143.584 393.69 143.92C393.498 144.244 393.234 144.508 392.898 144.712C392.574 144.904 392.208 145 391.8 145H385.536ZM385.536 143.524H391.8C391.992 143.524 392.154 143.458 392.286 143.326C392.43 143.182 392.502 143.014 392.502 142.822V136.738C392.502 136.546 392.43 136.384 392.286 136.252C392.154 136.108 391.992 136.036 391.8 136.036H385.536C385.344 136.036 385.176 136.108 385.032 136.252C384.9 136.384 384.834 136.546 384.834 136.738V142.822C384.834 143.014 384.9 143.182 385.032 143.326C385.176 143.458 385.344 143.524 385.536 143.524ZM395.611 145V134.56H404.071C404.467 134.56 404.827 134.662 405.151 134.866C405.487 135.058 405.751 135.322 405.943 135.658C406.147 135.982 406.249 136.342 406.249 136.738V145H404.773V136.738C404.773 136.546 404.701 136.384 404.557 136.252C404.425 136.108 404.263 136.036 404.071 136.036H397.807C397.615 136.036 397.447 136.108 397.303 136.252C397.159 136.384 397.087 136.546 397.087 136.738V145H395.611ZM413.049 145V134.56H421.509C421.905 134.56 422.265 134.662 422.589 134.866C422.925 135.058 423.189 135.322 423.381 135.658C423.585 135.982 423.687 136.342 423.687 136.738V145H422.211V136.738C422.211 136.546 422.139 136.384 421.995 136.252C421.863 136.108 421.701 136.036 421.509 136.036H415.245C415.053 136.036 414.885 136.108 414.741 136.252C414.597 136.384 414.525 136.546 414.525 136.738V145H413.049ZM427.742 145C427.346 145 426.98 144.904 426.644 144.712C426.32 144.508 426.056 144.244 425.852 143.92C425.66 143.584 425.564 143.218 425.564 142.822V134.56H427.04V142.822C427.04 143.014 427.106 143.182 427.238 143.326C427.382 143.458 427.55 143.524 427.742 143.524H434.006C434.198 143.524 434.366 143.458 434.51 143.326C434.654 143.182 434.726 143.014 434.726 142.822V134.56H436.202V142.822C436.202 143.218 436.1 143.584 435.896 143.92C435.704 144.244 435.44 144.508 435.104 144.712C434.78 144.904 434.414 145 434.006 145H427.742ZM440.24 145C439.844 145 439.478 144.904 439.142 144.712C438.818 144.508 438.554 144.244 438.35 143.92C438.158 143.584 438.062 143.218 438.062 142.822V131.14H439.538V142.822C439.538 143.014 439.604 143.182 439.736 143.326C439.88 143.458 440.048 143.524 440.24 143.524H442.004V145H440.24ZM445.671 145C445.275 145 444.909 144.904 444.573 144.712C444.249 144.508 443.985 144.244 443.781 143.92C443.589 143.584 443.493 143.218 443.493 142.822V131.14H444.969V142.822C444.969 143.014 445.035 143.182 445.167 143.326C445.311 143.458 445.479 143.524 445.671 143.524H447.435V145H445.671ZM450.927 145C450.531 145 450.165 144.904 449.829 144.712C449.505 144.508 449.241 144.244 449.037 143.92C448.845 143.584 448.749 143.218 448.749 142.822V139.042H457.893V136.738C457.893 136.546 457.821 136.384 457.677 136.252C457.545 136.108 457.383 136.036 457.191 136.036H448.749V134.56H457.191C457.599 134.56 457.965 134.662 458.289 134.866C458.625 135.058 458.889 135.322 459.081 135.658C459.285 135.982 459.387 136.342 459.387 136.738V145H450.927ZM450.927 143.524H457.893V140.518H450.225V142.822C450.225 143.014 450.291 143.182 450.423 143.326C450.567 143.458 450.735 143.524 450.927 143.524ZM468.257 145C467.861 145 467.495 144.904 467.159 144.712C466.835 144.508 466.571 144.244 466.367 143.92C466.175 143.584 466.079 143.218 466.079 142.822V142.678H467.555V142.822C467.555 143.014 467.621 143.182 467.753 143.326C467.897 143.458 468.065 143.524 468.257 143.524H474.521C474.713 143.524 474.875 143.458 475.007 143.326C475.151 143.182 475.223 143.014 475.223 142.822V141.22C475.223 141.028 475.151 140.866 475.007 140.734C474.875 140.59 474.713 140.518 474.521 140.518H468.257C467.861 140.518 467.495 140.422 467.159 140.23C466.835 140.026 466.571 139.762 466.367 139.438C466.175 139.102 466.079 138.736 466.079 138.34V136.738C466.079 136.342 466.175 135.982 466.367 135.658C466.571 135.322 466.835 135.058 467.159 134.866C467.495 134.662 467.861 134.56 468.257 134.56H474.521C474.929 134.56 475.295 134.662 475.619 134.866C475.955 135.058 476.219 135.322 476.411 135.658C476.615 135.982 476.717 136.342 476.717 136.738V136.882H475.223V136.738C475.223 136.546 475.151 136.384 475.007 136.252C474.875 136.108 474.713 136.036 474.521 136.036H468.257C468.065 136.036 467.897 136.108 467.753 136.252C467.621 136.384 467.555 136.546 467.555 136.738V138.34C467.555 138.532 467.621 138.7 467.753 138.844C467.897 138.976 468.065 139.042 468.257 139.042H474.521C474.929 139.042 475.295 139.144 475.619 139.348C475.955 139.54 476.219 139.804 476.411 140.14C476.615 140.464 476.717 140.824 476.717 141.22V142.822C476.717 143.218 476.615 143.584 476.411 143.92C476.219 144.244 475.955 144.508 475.619 144.712C475.295 144.904 474.929 145 474.521 145H468.257ZM478.491 145V134.56H479.967V145H478.491ZM478.491 132.616V131.14H479.967V132.616H478.491ZM484.431 145C484.023 145 483.651 144.904 483.315 144.712C482.991 144.508 482.733 144.244 482.541 143.92C482.349 143.584 482.253 143.218 482.253 142.822V131.14H483.729V134.56H488.247V136.036H483.729V142.822C483.729 143.014 483.795 143.182 483.927 143.326C484.071 143.458 484.239 143.524 484.431 143.524H488.247V145H484.431ZM501.723 145L494.217 132.04H495.927L502.569 143.578L509.193 132.04H510.903L503.415 145H501.723ZM514.735 145C514.339 145 513.973 144.904 513.637 144.712C513.313 144.508 513.049 144.244 512.845 143.92C512.653 143.584 512.557 143.218 512.557 142.822V136.738C512.557 136.342 512.653 135.982 512.845 135.658C513.049 135.322 513.313 135.058 513.637 134.866C513.973 134.662 514.339 134.56 514.735 134.56H520.999C521.407 134.56 521.773 134.662 522.097 134.866C522.433 135.058 522.697 135.322 522.889 135.658C523.093 135.982 523.195 136.342 523.195 136.738V140.518H514.033V142.822C514.033 143.014 514.099 143.182 514.231 143.326C514.375 143.458 514.543 143.524 514.735 143.524H523.195V145H514.735ZM514.033 139.042H521.701V136.738C521.701 136.546 521.629 136.384 521.485 136.252C521.353 136.108 521.191 136.036 520.999 136.036H514.735C514.543 136.036 514.375 136.108 514.231 136.252C514.099 136.384 514.033 136.546 514.033 136.738V139.042ZM527.144 145C526.748 145 526.382 144.904 526.046 144.712C525.722 144.508 525.458 144.244 525.254 143.92C525.062 143.584 524.966 143.218 524.966 142.822V142.678H526.442V142.822C526.442 143.014 526.508 143.182 526.64 143.326C526.784 143.458 526.952 143.524 527.144 143.524H533.408C533.6 143.524 533.762 143.458 533.894 143.326C534.038 143.182 534.11 143.014 534.11 142.822V141.22C534.11 141.028 534.038 140.866 533.894 140.734C533.762 140.59 533.6 140.518 533.408 140.518H527.144C526.748 140.518 526.382 140.422 526.046 140.23C525.722 140.026 525.458 139.762 525.254 139.438C525.062 139.102 524.966 138.736 524.966 138.34V136.738C524.966 136.342 525.062 135.982 525.254 135.658C525.458 135.322 525.722 135.058 526.046 134.866C526.382 134.662 526.748 134.56 527.144 134.56H533.408C533.816 134.56 534.182 134.662 534.506 134.866C534.842 135.058 535.106 135.322 535.298 135.658C535.502 135.982 535.604 136.342 535.604 136.738V136.882H534.11V136.738C534.11 136.546 534.038 136.384 533.894 136.252C533.762 136.108 533.6 136.036 533.408 136.036H527.144C526.952 136.036 526.784 136.108 526.64 136.252C526.508 136.384 526.442 136.546 526.442 136.738V138.34C526.442 138.532 526.508 138.7 526.64 138.844C526.784 138.976 526.952 139.042 527.144 139.042H533.408C533.816 139.042 534.182 139.144 534.506 139.348C534.842 139.54 535.106 139.804 535.298 140.14C535.502 140.464 535.604 140.824 535.604 141.22V142.822C535.604 143.218 535.502 143.584 535.298 143.92C535.106 144.244 534.842 144.508 534.506 144.712C534.182 144.904 533.816 145 533.408 145H527.144ZM539.574 145C539.166 145 538.794 144.904 538.458 144.712C538.134 144.508 537.876 144.244 537.684 143.92C537.492 143.584 537.396 143.218 537.396 142.822V131.14H538.872V134.56H543.39V136.036H538.872V142.822C538.872 143.014 538.938 143.182 539.07 143.326C539.214 143.458 539.382 143.524 539.574 143.524H543.39V145H539.574ZM544.849 145V134.56H546.325V145H544.849ZM544.849 132.616V131.14H546.325V132.616H544.849ZM548.629 145V131.14H550.105V134.56H557.089C557.485 134.56 557.845 134.662 558.169 134.866C558.505 135.058 558.769 135.322 558.961 135.658C559.165 135.982 559.267 136.342 559.267 136.738V142.822C559.267 143.218 559.165 143.584 558.961 143.92C558.769 144.244 558.505 144.508 558.169 144.712C557.845 144.904 557.485 145 557.089 145H548.629ZM550.825 143.524H557.089C557.281 143.524 557.443 143.458 557.575 143.326C557.719 143.182 557.791 143.014 557.791 142.822V136.738C557.791 136.546 557.719 136.384 557.575 136.252C557.443 136.108 557.281 136.036 557.089 136.036H550.825C550.633 136.036 550.465 136.108 550.321 136.252C550.177 136.384 550.105 136.546 550.105 136.738V142.822C550.105 143.014 550.177 143.182 550.321 143.326C550.465 143.458 550.633 143.524 550.825 143.524ZM562.795 145C562.399 145 562.033 144.904 561.697 144.712C561.373 144.508 561.109 144.244 560.905 143.92C560.713 143.584 560.617 143.218 560.617 142.822V134.56H562.093V142.822C562.093 143.014 562.159 143.182 562.291 143.326C562.435 143.458 562.603 143.524 562.795 143.524H569.059C569.251 143.524 569.419 143.458 569.563 143.326C569.707 143.182 569.779 143.014 569.779 142.822V134.56H571.255V142.822C571.255 143.218 571.153 143.584 570.949 143.92C570.757 144.244 570.493 144.508 570.157 144.712C569.833 144.904 569.467 145 569.059 145H562.795ZM572.799 145V134.56H586.587C586.995 134.56 587.361 134.662 587.685 134.866C588.021 135.058 588.285 135.322 588.477 135.658C588.669 135.982 588.765 136.342 588.765 136.738V145H587.307V136.738C587.307 136.546 587.235 136.384 587.091 136.252C586.947 136.108 586.779 136.036 586.587 136.036H582.249C582.057 136.036 581.889 136.108 581.745 136.252C581.613 136.384 581.547 136.546 581.547 136.738V145H580.053V136.738C580.053 136.546 579.981 136.384 579.837 136.252C579.705 136.108 579.543 136.036 579.351 136.036H574.995C574.803 136.036 574.635 136.108 574.491 136.252C574.359 136.384 574.293 136.546 574.293 136.738V145H572.799ZM90.8216 173C90.4256 173 90.0596 172.904 89.7236 172.712C89.3996 172.508 89.1356 172.244 88.9316 171.92C88.7396 171.584 88.6436 171.218 88.6436 170.822V167.042H97.7876V164.738C97.7876 164.546 97.7156 164.384 97.5716 164.252C97.4396 164.108 97.2776 164.036 97.0856 164.036H88.6436V162.56H97.0856C97.4936 162.56 97.8596 162.662 98.1836 162.866C98.5196 163.058 98.7836 163.322 98.9756 163.658C99.1796 163.982 99.2816 164.342 99.2816 164.738V173H90.8216ZM90.8216 171.524H97.7876V168.518H90.1196V170.822C90.1196 171.014 90.1856 171.182 90.3176 171.326C90.4616 171.458 90.6296 171.524 90.8216 171.524ZM100.914 173V162.56H109.374C109.77 162.56 110.13 162.662 110.454 162.866C110.79 163.058 111.054 163.322 111.246 163.658C111.45 163.982 111.552 164.342 111.552 164.738V173H110.076V164.738C110.076 164.546 110.004 164.384 109.86 164.252C109.728 164.108 109.566 164.036 109.374 164.036H103.11C102.918 164.036 102.75 164.108 102.606 164.252C102.462 164.384 102.39 164.546 102.39 164.738V173H100.914ZM115.607 173C115.199 173 114.827 172.904 114.491 172.712C114.167 172.508 113.909 172.244 113.717 171.92C113.525 171.584 113.429 171.218 113.429 170.822V159.14H114.905V162.56H119.423V164.036H114.905V170.822C114.905 171.014 114.971 171.182 115.103 171.326C115.247 171.458 115.415 171.524 115.607 171.524H119.423V173H115.607ZM122.954 173C122.558 173 122.192 172.904 121.856 172.712C121.532 172.508 121.268 172.244 121.064 171.92C120.872 171.584 120.776 171.218 120.776 170.822V164.738C120.776 164.342 120.872 163.982 121.064 163.658C121.268 163.322 121.532 163.058 121.856 162.866C122.192 162.662 122.558 162.56 122.954 162.56H129.218C129.626 162.56 129.992 162.662 130.316 162.866C130.652 163.058 130.916 163.322 131.108 163.658C131.312 163.982 131.414 164.342 131.414 164.738V168.518H122.252V170.822C122.252 171.014 122.318 171.182 122.45 171.326C122.594 171.458 122.762 171.524 122.954 171.524H131.414V173H122.954ZM122.252 167.042H129.92V164.738C129.92 164.546 129.848 164.384 129.704 164.252C129.572 164.108 129.41 164.036 129.218 164.036H122.954C122.762 164.036 122.594 164.108 122.45 164.252C122.318 164.384 122.252 164.546 122.252 164.738V167.042ZM138.161 173V162.56H139.637V173H138.161ZM138.161 160.616V159.14H139.637V160.616H138.161ZM141.484 177.14V162.56H149.944C150.34 162.56 150.7 162.662 151.024 162.866C151.36 163.058 151.624 163.322 151.816 163.658C152.02 163.982 152.122 164.342 152.122 164.738V170.822C152.122 171.218 152.02 171.584 151.816 171.92C151.624 172.244 151.36 172.508 151.024 172.712C150.7 172.904 150.34 173 149.944 173H142.96V177.14H141.484ZM143.68 171.524H149.944C150.136 171.524 150.298 171.458 150.43 171.326C150.574 171.182 150.646 171.014 150.646 170.822V164.738C150.646 164.546 150.574 164.384 150.43 164.252C150.298 164.108 150.136 164.036 149.944 164.036H143.68C143.488 164.036 143.32 164.108 143.176 164.252C143.032 164.384 142.96 164.546 142.96 164.738V170.822C142.96 171.014 143.032 171.182 143.176 171.326C143.32 171.458 143.488 171.524 143.68 171.524ZM155.683 173C155.287 173 154.921 172.904 154.585 172.712C154.261 172.508 153.997 172.244 153.793 171.92C153.601 171.584 153.505 171.218 153.505 170.822V170.678H154.981V170.822C154.981 171.014 155.047 171.182 155.179 171.326C155.323 171.458 155.491 171.524 155.683 171.524H161.947C162.139 171.524 162.301 171.458 162.433 171.326C162.577 171.182 162.649 171.014 162.649 170.822V169.22C162.649 169.028 162.577 168.866 162.433 168.734C162.301 168.59 162.139 168.518 161.947 168.518H155.683C155.287 168.518 154.921 168.422 154.585 168.23C154.261 168.026 153.997 167.762 153.793 167.438C153.601 167.102 153.505 166.736 153.505 166.34V164.738C153.505 164.342 153.601 163.982 153.793 163.658C153.997 163.322 154.261 163.058 154.585 162.866C154.921 162.662 155.287 162.56 155.683 162.56H161.947C162.355 162.56 162.721 162.662 163.045 162.866C163.381 163.058 163.645 163.322 163.837 163.658C164.041 163.982 164.143 164.342 164.143 164.738V164.882H162.649V164.738C162.649 164.546 162.577 164.384 162.433 164.252C162.301 164.108 162.139 164.036 161.947 164.036H155.683C155.491 164.036 155.323 164.108 155.179 164.252C155.047 164.384 154.981 164.546 154.981 164.738V166.34C154.981 166.532 155.047 166.7 155.179 166.844C155.323 166.976 155.491 167.042 155.683 167.042H161.947C162.355 167.042 162.721 167.144 163.045 167.348C163.381 167.54 163.645 167.804 163.837 168.14C164.041 168.464 164.143 168.824 164.143 169.22V170.822C164.143 171.218 164.041 171.584 163.837 171.92C163.645 172.244 163.381 172.508 163.045 172.712C162.721 172.904 162.355 173 161.947 173H155.683ZM167.762 173C167.366 173 167 172.904 166.664 172.712C166.34 172.508 166.076 172.244 165.872 171.92C165.68 171.584 165.584 171.218 165.584 170.822V162.56H167.06V170.822C167.06 171.014 167.126 171.182 167.258 171.326C167.402 171.458 167.57 171.524 167.762 171.524H174.026C174.218 171.524 174.386 171.458 174.53 171.326C174.674 171.182 174.746 171.014 174.746 170.822V162.56H176.222V170.822C176.222 171.218 176.12 171.584 175.916 171.92C175.724 172.244 175.46 172.508 175.124 172.712C174.8 172.904 174.434 173 174.026 173H167.762ZM177.766 173V162.56H191.554C191.962 162.56 192.328 162.662 192.652 162.866C192.988 163.058 193.252 163.322 193.444 163.658C193.636 163.982 193.732 164.342 193.732 164.738V173H192.274V164.738C192.274 164.546 192.202 164.384 192.058 164.252C191.914 164.108 191.746 164.036 191.554 164.036H187.216C187.024 164.036 186.856 164.108 186.712 164.252C186.58 164.384 186.514 164.546 186.514 164.738V173H185.02V164.738C185.02 164.546 184.948 164.384 184.804 164.252C184.672 164.108 184.51 164.036 184.318 164.036H179.962C179.77 164.036 179.602 164.108 179.458 164.252C179.326 164.384 179.26 164.546 179.26 164.738V173H177.766ZM200.266 177.14V162.56H208.726C209.122 162.56 209.482 162.662 209.806 162.866C210.142 163.058 210.406 163.322 210.598 163.658C210.802 163.982 210.904 164.342 210.904 164.738V170.822C210.904 171.218 210.802 171.584 210.598 171.92C210.406 172.244 210.142 172.508 209.806 172.712C209.482 172.904 209.122 173 208.726 173H201.742V177.14H200.266ZM202.462 171.524H208.726C208.918 171.524 209.08 171.458 209.212 171.326C209.356 171.182 209.428 171.014 209.428 170.822V164.738C209.428 164.546 209.356 164.384 209.212 164.252C209.08 164.108 208.918 164.036 208.726 164.036H202.462C202.27 164.036 202.102 164.108 201.958 164.252C201.814 164.384 201.742 164.546 201.742 164.738V170.822C201.742 171.014 201.814 171.182 201.958 171.326C202.102 171.458 202.27 171.524 202.462 171.524ZM212.183 173V164.738C212.183 164.342 212.279 163.982 212.471 163.658C212.675 163.322 212.939 163.058 213.263 162.866C213.599 162.662 213.965 162.56 214.361 162.56H220.229V164.036H214.361C214.169 164.036 214.001 164.108 213.857 164.252C213.725 164.384 213.659 164.546 213.659 164.738V173H212.183ZM221.394 173V162.56H222.87V173H221.394ZM221.394 160.616V159.14H222.87V160.616H221.394ZM225.174 173V162.56H238.962C239.37 162.56 239.736 162.662 240.06 162.866C240.396 163.058 240.66 163.322 240.852 163.658C241.044 163.982 241.14 164.342 241.14 164.738V173H239.682V164.738C239.682 164.546 239.61 164.384 239.466 164.252C239.322 164.108 239.154 164.036 238.962 164.036H234.624C234.432 164.036 234.264 164.108 234.12 164.252C233.988 164.384 233.922 164.546 233.922 164.738V173H232.428V164.738C232.428 164.546 232.356 164.384 232.212 164.252C232.08 164.108 231.918 164.036 231.726 164.036H227.37C227.178 164.036 227.01 164.108 226.866 164.252C226.734 164.384 226.668 164.546 226.668 164.738V173H225.174ZM242.733 173V162.56H244.209V173H242.733ZM242.733 160.616V159.14H244.209V160.616H242.733ZM248.584 173C248.188 173 247.822 172.904 247.486 172.712C247.162 172.508 246.898 172.244 246.694 171.92C246.502 171.584 246.406 171.218 246.406 170.822V170.678H247.882V170.822C247.882 171.014 247.948 171.182 248.08 171.326C248.224 171.458 248.392 171.524 248.584 171.524H254.848C255.04 171.524 255.202 171.458 255.334 171.326C255.478 171.182 255.55 171.014 255.55 170.822V169.22C255.55 169.028 255.478 168.866 255.334 168.734C255.202 168.59 255.04 168.518 254.848 168.518H248.584C248.188 168.518 247.822 168.422 247.486 168.23C247.162 168.026 246.898 167.762 246.694 167.438C246.502 167.102 246.406 166.736 246.406 166.34V164.738C246.406 164.342 246.502 163.982 246.694 163.658C246.898 163.322 247.162 163.058 247.486 162.866C247.822 162.662 248.188 162.56 248.584 162.56H254.848C255.256 162.56 255.622 162.662 255.946 162.866C256.282 163.058 256.546 163.322 256.738 163.658C256.942 163.982 257.044 164.342 257.044 164.738V164.882H255.55V164.738C255.55 164.546 255.478 164.384 255.334 164.252C255.202 164.108 255.04 164.036 254.848 164.036H248.584C248.392 164.036 248.224 164.108 248.08 164.252C247.948 164.384 247.882 164.546 247.882 164.738V166.34C247.882 166.532 247.948 166.7 248.08 166.844C248.224 166.976 248.392 167.042 248.584 167.042H254.848C255.256 167.042 255.622 167.144 255.946 167.348C256.282 167.54 256.546 167.804 256.738 168.14C256.942 168.464 257.044 168.824 257.044 169.22V170.822C257.044 171.218 256.942 171.584 256.738 171.92C256.546 172.244 256.282 172.508 255.946 172.712C255.622 172.904 255.256 173 254.848 173H248.584ZM263.722 173V162.56H265.198V173H263.722ZM263.722 160.616V159.14H265.198V160.616H263.722ZM267.238 173V162.56H275.698C276.094 162.56 276.454 162.662 276.778 162.866C277.114 163.058 277.378 163.322 277.57 163.658C277.774 163.982 277.876 164.342 277.876 164.738V173H276.4V164.738C276.4 164.546 276.328 164.384 276.184 164.252C276.052 164.108 275.89 164.036 275.698 164.036H269.434C269.242 164.036 269.074 164.108 268.93 164.252C268.786 164.384 268.714 164.546 268.714 164.738V173H267.238ZM284.658 173V161.318C284.658 160.91 284.754 160.544 284.946 160.22C285.138 159.884 285.396 159.62 285.72 159.428C286.056 159.236 286.428 159.14 286.836 159.14H290.652V160.616H286.836C286.644 160.616 286.476 160.688 286.332 160.832C286.2 160.964 286.134 161.126 286.134 161.318V162.56H290.652V164.036H286.134V173H284.658ZM294.148 173C293.752 173 293.386 172.904 293.05 172.712C292.726 172.508 292.462 172.244 292.258 171.92C292.066 171.584 291.97 171.218 291.97 170.822V167.042H301.114V164.738C301.114 164.546 301.042 164.384 300.898 164.252C300.766 164.108 300.604 164.036 300.412 164.036H291.97V162.56H300.412C300.82 162.56 301.186 162.662 301.51 162.866C301.846 163.058 302.11 163.322 302.302 163.658C302.506 163.982 302.608 164.342 302.608 164.738V173H294.148ZM294.148 171.524H301.114V168.518H293.446V170.822C293.446 171.014 293.512 171.182 293.644 171.326C293.788 171.458 293.956 171.524 294.148 171.524ZM306.664 173C306.268 173 305.902 172.904 305.566 172.712C305.242 172.508 304.978 172.244 304.774 171.92C304.582 171.584 304.486 171.218 304.486 170.822V162.56H305.962V170.822C305.962 171.014 306.028 171.182 306.16 171.326C306.304 171.458 306.472 171.524 306.664 171.524H312.928C313.12 171.524 313.288 171.458 313.432 171.326C313.576 171.182 313.648 171.014 313.648 170.822V162.56H315.124V170.822C315.124 171.218 315.022 171.584 314.818 171.92C314.626 172.244 314.362 172.508 314.026 172.712C313.702 172.904 313.336 173 312.928 173H306.664ZM318.792 173C318.396 173 318.03 172.904 317.694 172.712C317.37 172.508 317.106 172.244 316.902 171.92C316.71 171.584 316.614 171.218 316.614 170.822V164.738C316.614 164.342 316.71 163.982 316.902 163.658C317.106 163.322 317.37 163.058 317.694 162.866C318.03 162.662 318.396 162.56 318.792 162.56H327.216V164.036H318.792C318.6 164.036 318.432 164.108 318.288 164.252C318.156 164.384 318.09 164.546 318.09 164.738V170.822C318.09 171.014 318.156 171.182 318.288 171.326C318.432 171.458 318.6 171.524 318.792 171.524H327.252V173H318.792ZM329.148 173V162.56H330.624V173H329.148ZM329.148 160.616V159.14H330.624V160.616H329.148ZM332.928 173V159.14H334.404V162.56H341.388C341.784 162.56 342.144 162.662 342.468 162.866C342.804 163.058 343.068 163.322 343.26 163.658C343.464 163.982 343.566 164.342 343.566 164.738V170.822C343.566 171.218 343.464 171.584 343.26 171.92C343.068 172.244 342.804 172.508 342.468 172.712C342.144 172.904 341.784 173 341.388 173H332.928ZM335.124 171.524H341.388C341.58 171.524 341.742 171.458 341.874 171.326C342.018 171.182 342.09 171.014 342.09 170.822V164.738C342.09 164.546 342.018 164.384 341.874 164.252C341.742 164.108 341.58 164.036 341.388 164.036H335.124C334.932 164.036 334.764 164.108 334.62 164.252C334.476 164.384 334.404 164.546 334.404 164.738V170.822C334.404 171.014 334.476 171.182 334.62 171.326C334.764 171.458 334.932 171.524 335.124 171.524ZM347.094 173C346.698 173 346.332 172.904 345.996 172.712C345.672 172.508 345.408 172.244 345.204 171.92C345.012 171.584 344.916 171.218 344.916 170.822V162.56H346.392V170.822C346.392 171.014 346.458 171.182 346.59 171.326C346.734 171.458 346.902 171.524 347.094 171.524H353.358C353.55 171.524 353.718 171.458 353.862 171.326C354.006 171.182 354.078 171.014 354.078 170.822V162.56H355.554V170.822C355.554 171.218 355.452 171.584 355.248 171.92C355.056 172.244 354.792 172.508 354.456 172.712C354.132 172.904 353.766 173 353.358 173H347.094ZM359.256 173C358.86 173 358.494 172.904 358.158 172.712C357.834 172.508 357.57 172.244 357.366 171.92C357.174 171.584 357.078 171.218 357.078 170.822V170.678H358.554V170.822C358.554 171.014 358.62 171.182 358.752 171.326C358.896 171.458 359.064 171.524 359.256 171.524H365.52C365.712 171.524 365.874 171.458 366.006 171.326C366.15 171.182 366.222 171.014 366.222 170.822V169.22C366.222 169.028 366.15 168.866 366.006 168.734C365.874 168.59 365.712 168.518 365.52 168.518H359.256C358.86 168.518 358.494 168.422 358.158 168.23C357.834 168.026 357.57 167.762 357.366 167.438C357.174 167.102 357.078 166.736 357.078 166.34V164.738C357.078 164.342 357.174 163.982 357.366 163.658C357.57 163.322 357.834 163.058 358.158 162.866C358.494 162.662 358.86 162.56 359.256 162.56H365.52C365.928 162.56 366.294 162.662 366.618 162.866C366.954 163.058 367.218 163.322 367.41 163.658C367.614 163.982 367.716 164.342 367.716 164.738V164.882H366.222V164.738C366.222 164.546 366.15 164.384 366.006 164.252C365.874 164.108 365.712 164.036 365.52 164.036H359.256C359.064 164.036 358.896 164.108 358.752 164.252C358.62 164.384 358.554 164.546 358.554 164.738V166.34C358.554 166.532 358.62 166.7 358.752 166.844C358.896 166.976 359.064 167.042 359.256 167.042H365.52C365.928 167.042 366.294 167.144 366.618 167.348C366.954 167.54 367.218 167.804 367.41 168.14C367.614 168.464 367.716 168.824 367.716 169.22V170.822C367.716 171.218 367.614 171.584 367.41 171.92C367.218 172.244 366.954 172.508 366.618 172.712C366.294 172.904 365.928 173 365.52 173H359.256ZM376.554 173C376.158 173 375.792 172.904 375.456 172.712C375.132 172.508 374.868 172.244 374.664 171.92C374.472 171.584 374.376 171.218 374.376 170.822V164.738C374.376 164.342 374.472 163.982 374.664 163.658C374.868 163.322 375.132 163.058 375.456 162.866C375.792 162.662 376.158 162.56 376.554 162.56H382.818C383.226 162.56 383.592 162.662 383.916 162.866C384.252 163.058 384.516 163.322 384.708 163.658C384.912 163.982 385.014 164.342 385.014 164.738V170.822C385.014 171.218 384.912 171.584 384.708 171.92C384.516 172.244 384.252 172.508 383.916 172.712C383.592 172.904 383.226 173 382.818 173H376.554ZM376.554 171.524H382.818C383.01 171.524 383.172 171.458 383.304 171.326C383.448 171.182 383.52 171.014 383.52 170.822V164.738C383.52 164.546 383.448 164.384 383.304 164.252C383.172 164.108 383.01 164.036 382.818 164.036H376.554C376.362 164.036 376.194 164.108 376.05 164.252C375.918 164.384 375.852 164.546 375.852 164.738V170.822C375.852 171.014 375.918 171.182 376.05 171.326C376.194 171.458 376.362 171.524 376.554 171.524ZM386.681 173V164.738C386.681 164.342 386.777 163.982 386.969 163.658C387.173 163.322 387.437 163.058 387.761 162.866C388.097 162.662 388.463 162.56 388.859 162.56H394.727V164.036H388.859C388.667 164.036 388.499 164.108 388.355 164.252C388.223 164.384 388.157 164.546 388.157 164.738V173H386.681ZM398.052 173C397.656 173 397.29 172.904 396.954 172.712C396.63 172.508 396.366 172.244 396.162 171.92C395.97 171.584 395.874 171.218 395.874 170.822V164.738C395.874 164.342 395.97 163.982 396.162 163.658C396.366 163.322 396.63 163.058 396.954 162.866C397.29 162.662 397.656 162.56 398.052 162.56H406.476V164.036H398.052C397.86 164.036 397.692 164.108 397.548 164.252C397.416 164.384 397.35 164.546 397.35 164.738V170.822C397.35 171.014 397.416 171.182 397.548 171.326C397.692 171.458 397.86 171.524 398.052 171.524H406.512V173H398.052ZM408.407 173V162.56H409.883V173H408.407ZM408.407 160.616V159.14H409.883V160.616H408.407Z" fill="#DFDFDF" fill-opacity="0.8"/>
<path d="M89.5636 68V48.8C89.5636 48.096 89.7343 47.456 90.0756 46.88C90.417 46.2827 90.8756 45.8133 91.4516 45.472C92.049 45.1307 92.6996 44.96 93.4036 44.96H108.764C109.468 44.96 110.108 45.1307 110.684 45.472C111.281 45.8133 111.75 46.2827 112.092 46.88C112.433 47.456 112.604 48.096 112.604 48.8V68H110.012V59.584H92.1556V68H89.5636ZM92.1556 56.992H110.012V48.8C110.012 48.4587 109.884 48.1707 109.628 47.936C109.393 47.68 109.105 47.552 108.764 47.552H93.4036C93.0623 47.552 92.7636 47.68 92.5076 47.936C92.273 48.1707 92.1556 48.4587 92.1556 48.8V56.992ZM119.994 68C119.29 68 118.639 67.8293 118.042 67.488C117.466 67.1253 116.996 66.656 116.634 66.08C116.292 65.4827 116.122 64.832 116.122 64.128V43.36H118.746V64.128C118.746 64.4693 118.863 64.768 119.098 65.024C119.354 65.2587 119.652 65.376 119.994 65.376H123.13V68H119.994ZM129.65 68C128.946 68 128.295 67.8293 127.698 67.488C127.122 67.1253 126.653 66.656 126.29 66.08C125.949 65.4827 125.778 64.832 125.778 64.128V43.36H128.402V64.128C128.402 64.4693 128.519 64.768 128.754 65.024C129.01 65.2587 129.309 65.376 129.65 65.376H132.786V68H129.65ZM144.281 68V44.96H147.833L164.729 65.056V44.96H167.321V68H163.769L146.873 47.904V68H144.281ZM174.618 68C173.914 68 173.263 67.8293 172.666 67.488C172.09 67.1253 171.621 66.656 171.258 66.08C170.917 65.4827 170.746 64.832 170.746 64.128V53.312C170.746 52.608 170.917 51.968 171.258 51.392C171.621 50.7947 172.09 50.3253 172.666 49.984C173.263 49.6213 173.914 49.44 174.618 49.44H185.754C186.479 49.44 187.13 49.6213 187.706 49.984C188.303 50.3253 188.773 50.7947 189.114 51.392C189.477 51.968 189.658 52.608 189.658 53.312V60.032H173.37V64.128C173.37 64.4693 173.487 64.768 173.722 65.024C173.978 65.2587 174.277 65.376 174.618 65.376H189.658V68H174.618ZM173.37 57.408H187.002V53.312C187.002 52.9707 186.874 52.6827 186.618 52.448C186.383 52.192 186.095 52.064 185.754 52.064H174.618C174.277 52.064 173.978 52.192 173.722 52.448C173.487 52.6827 173.37 52.9707 173.37 53.312V57.408ZM198.717 68L191.421 49.44H194.237L199.869 63.264L205.853 49.44H209.309L215.677 63.232L220.925 49.44H223.773L216.765 68H214.493L207.581 52.672L201.021 68H198.717ZM238.933 68C238.229 68 237.579 67.8293 236.981 67.488C236.405 67.1467 235.947 66.688 235.605 66.112C235.264 65.5147 235.093 64.864 235.093 64.16V48.8C235.093 48.096 235.264 47.456 235.605 46.88C235.947 46.2827 236.405 45.8133 236.981 45.472C237.579 45.1307 238.229 44.96 238.933 44.96H254.293C254.997 44.96 255.637 45.1307 256.213 45.472C256.811 45.8133 257.28 46.2827 257.621 46.88C257.963 47.456 258.133 48.096 258.133 48.8V49.728H255.541V48.8C255.541 48.4587 255.413 48.1707 255.157 47.936C254.923 47.68 254.635 47.552 254.293 47.552H238.933C238.592 47.552 238.293 47.68 238.037 47.936C237.803 48.1707 237.685 48.4587 237.685 48.8V64.16C237.685 64.5013 237.803 64.8 238.037 65.056C238.293 65.2907 238.592 65.408 238.933 65.408H254.293C254.635 65.408 254.923 65.2907 255.157 65.056C255.413 64.8 255.541 64.5013 255.541 64.16V58.464H249.845V55.84H258.133V64.16C258.133 64.864 257.963 65.5147 257.621 66.112C257.28 66.688 256.811 67.1467 256.213 67.488C255.637 67.8293 254.997 68 254.293 68H238.933ZM265.4 68C264.696 68 264.045 67.8293 263.448 67.488C262.872 67.1253 262.403 66.656 262.04 66.08C261.699 65.4827 261.528 64.832 261.528 64.128V57.408H277.784V53.312C277.784 52.9707 277.656 52.6827 277.4 52.448C277.165 52.192 276.877 52.064 276.536 52.064H261.528V49.44H276.536C277.261 49.44 277.912 49.6213 278.488 49.984C279.085 50.3253 279.555 50.7947 279.896 51.392C280.259 51.968 280.44 52.608 280.44 53.312V68H265.4ZM265.4 65.376H277.784V60.032H264.152V64.128C264.152 64.4693 264.269 64.768 264.504 65.024C264.76 65.2587 265.059 65.376 265.4 65.376ZM283.186 68V49.44H307.698C308.423 49.44 309.074 49.6213 309.65 49.984C310.247 50.3253 310.716 50.7947 311.058 51.392C311.399 51.968 311.57 52.608 311.57 53.312V68H308.978V53.312C308.978 52.9707 308.85 52.6827 308.594 52.448C308.338 52.192 308.039 52.064 307.698 52.064H299.986C299.644 52.064 299.346 52.192 299.09 52.448C298.855 52.6827 298.738 52.9707 298.738 53.312V68H296.082V53.312C296.082 52.9707 295.954 52.6827 295.698 52.448C295.463 52.192 295.175 52.064 294.834 52.064H287.09C286.748 52.064 286.45 52.192 286.194 52.448C285.959 52.6827 285.842 52.9707 285.842 53.312V68H283.186ZM318.243 68C317.539 68 316.888 67.8293 316.291 67.488C315.715 67.1253 315.246 66.656 314.883 66.08C314.542 65.4827 314.371 64.832 314.371 64.128V53.312C314.371 52.608 314.542 51.968 314.883 51.392C315.246 50.7947 315.715 50.3253 316.291 49.984C316.888 49.6213 317.539 49.44 318.243 49.44H329.379C330.104 49.44 330.755 49.6213 331.331 49.984C331.928 50.3253 332.398 50.7947 332.739 51.392C333.102 51.968 333.283 52.608 333.283 53.312V60.032H316.995V64.128C316.995 64.4693 317.112 64.768 317.347 65.024C317.603 65.2587 317.902 65.376 318.243 65.376H333.283V68H318.243ZM316.995 57.408H330.627V53.312C330.627 52.9707 330.499 52.6827 330.243 52.448C330.008 52.192 329.72 52.064 329.379 52.064H318.243C317.902 52.064 317.603 52.192 317.347 52.448C317.112 52.6827 316.995 52.9707 316.995 53.312V57.408ZM336.623 75.36V49.44H351.663C352.367 49.44 353.007 49.6213 353.583 49.984C354.18 50.3253 354.65 50.7947 354.991 51.392C355.354 51.968 355.535 52.608 355.535 53.312V64.128C355.535 64.832 355.354 65.4827 354.991 66.08C354.65 66.656 354.18 67.1253 353.583 67.488C353.007 67.8293 352.367 68 351.663 68H339.247V75.36H336.623ZM340.527 65.376H351.663C352.004 65.376 352.292 65.2587 352.527 65.024C352.783 64.768 352.911 64.4693 352.911 64.128V53.312C352.911 52.9707 352.783 52.6827 352.527 52.448C352.292 52.192 352.004 52.064 351.663 52.064H340.527C340.186 52.064 339.887 52.192 339.631 52.448C339.375 52.6827 339.247 52.9707 339.247 53.312V64.128C339.247 64.4693 339.375 64.768 339.631 65.024C339.887 65.2587 340.186 65.376 340.527 65.376ZM361.681 68C360.977 68 360.326 67.8293 359.729 67.488C359.153 67.1253 358.684 66.656 358.321 66.08C357.98 65.4827 357.809 64.832 357.809 64.128V43.36H360.433V64.128C360.433 64.4693 360.55 64.768 360.785 65.024C361.041 65.2587 361.34 65.376 361.681 65.376H364.817V68H361.681ZM371.025 68C370.321 68 369.67 67.8293 369.073 67.488C368.497 67.1253 368.028 66.656 367.665 66.08C367.324 65.4827 367.153 64.832 367.153 64.128V57.408H383.409V53.312C383.409 52.9707 383.281 52.6827 383.025 52.448C382.79 52.192 382.502 52.064 382.161 52.064H367.153V49.44H382.161C382.886 49.44 383.537 49.6213 384.113 49.984C384.71 50.3253 385.18 50.7947 385.521 51.392C385.884 51.968 386.065 52.608 386.065 53.312V68H371.025ZM371.025 65.376H383.409V60.032H369.777V64.128C369.777 64.4693 369.894 64.768 370.129 65.024C370.385 65.2587 370.684 65.376 371.025 65.376ZM392.476 75.36V72.704H404.06C404.401 72.704 404.689 72.576 404.924 72.32C405.18 72.0853 405.308 71.7973 405.308 71.456V68H392.924C392.22 68 391.569 67.8293 390.972 67.488C390.396 67.1253 389.926 66.656 389.564 66.08C389.222 65.4827 389.052 64.832 389.052 64.128V49.504H391.676V64.128C391.676 64.4693 391.793 64.768 392.028 65.024C392.284 65.2587 392.582 65.376 392.924 65.376H404.06C404.401 65.376 404.689 65.2587 404.924 65.024C405.18 64.768 405.308 64.4693 405.308 64.128V49.504H407.932V71.456C407.932 72.1813 407.761 72.832 407.42 73.408C407.078 74.0053 406.609 74.4747 406.012 74.816C405.436 75.1787 404.785 75.36 404.06 75.36H392.476Z" fill="white"/>
<defs>
<clipPath id="clip0_1_226">
<rect width="31.794" height="29" fill="white" transform="translate(38.3721 35)"/>
</clipPath>
</defs>
</svg>
