<svg width="45" height="41" viewBox="0 0 45 41" fill="none" xmlns="http://www.w3.org/2000/svg">
<path d="M26.1748 7.72272C20.7542 8.41942 9.33153 5.42081 8.63482 0L8.55455 0.0103202C9.11213 4.34888 11.3704 8.28822 14.8324 10.9618C18.2945 13.6354 22.6768 14.8242 27.0154 14.2668C29.6185 13.9322 32.248 14.6454 34.3254 16.2495C36.4028 17.8536 37.7577 20.2173 38.0923 22.8204C38.4275 25.4234 37.7147 28.0533 36.111 30.1308C34.5072 32.2086 32.1438 33.5639 29.5408 33.8991C26.9375 34.2341 24.3079 33.5213 22.2302 31.9176C20.1526 30.3138 18.7971 27.9504 18.462 25.3474C18.1859 23.199 17.4893 21.1262 16.412 19.2471C15.3347 17.3681 13.8979 15.7195 12.1835 14.3958C10.4691 13.072 8.51088 12.0988 6.42041 11.5319C4.32996 10.9649 2.14829 10.8153 0 11.0915L0.0102301 11.1711C5.43002 10.4745 11.2191 20.763 11.918 26.1843L11.9169 26.1844C12.3328 29.42 13.6987 32.4595 15.8419 34.9187C17.9852 37.3779 20.8095 39.1464 23.9578 40.0004C27.1062 40.8545 30.437 40.7559 33.5293 39.7168C36.6215 38.6779 39.3362 36.7453 41.3302 34.1636C43.3239 31.5817 44.5075 28.4667 44.7311 25.2121C44.9547 21.9577 44.208 18.7102 42.5859 15.88C40.9637 13.0498 38.5387 10.7643 35.6176 9.31232C32.6963 7.86032 29.4102 7.30722 26.1748 7.72272Z" fill="url(#paint0_linear_1_61)"/>
<defs>
<linearGradient id="paint0_linear_1_61" x1="15.0409" y1="5.51097" x2="48.028" y2="43.4461" gradientUnits="userSpaceOnUse">
<stop stop-color="#57B8FF"/>
<stop offset="0.940625" stop-color="#038EF2"/>
<stop offset="1" stop-color="white" stop-opacity="0"/>
</linearGradient>
</defs>
</svg>
