<svg width="480" height="218" viewBox="0 0 480 218" fill="none" xmlns="http://www.w3.org/2000/svg">
<g clip-path="url(#clip0_1_333)">
<path d="M187.503 128.391C193.709 128.391 201.262 123.711 209.951 114.481C215.24 108.863 222.316 105.641 229.367 105.641H250.634C257.737 105.641 265.088 108.946 270.299 114.481C279.111 123.841 286.371 128.391 292.497 128.391C295.921 128.391 303.897 126.566 303.999 109.664C304.104 92.3425 295.852 65.3818 283.4 52.8543C278.643 48.0681 273.596 45.6414 268.399 45.6414C261.896 45.6414 258.86 47.7131 256.181 49.5411C254.158 50.9208 252.238 52.2305 248.187 52.9915C249.863 50.3421 251.25 47.1348 251.25 43.7661C251.25 35.8188 243.534 28.7563 242.5 27.8464C240.855 26.3439 236.25 21.2515 236.25 17.2665C236.25 13.3358 240.859 8.3854 242.474 6.95967C244.028 5.59519 244.184 3.22948 242.822 1.67225C241.458 0.113518 239.089 -0.0442298 237.531 1.3195C236.632 2.106 228.75 9.2344 228.75 17.2665C228.75 25.2579 236.585 32.6055 237.479 33.417C237.496 33.4325 237.513 33.448 237.531 33.4633C239.144 34.875 243.75 39.7982 243.75 43.7659C243.75 47.0718 240.49 51.0988 238.496 53.1408H232.682C228.026 52.4105 225.981 51.0158 223.819 49.5406C221.14 47.7126 218.104 45.6409 211.6 45.6409C206.404 45.6409 201.357 48.0676 196.6 52.8538C184.148 65.3816 175.896 92.3422 176.001 109.663C176.103 126.566 184.079 128.391 187.503 128.391ZM201.919 58.1414C205.217 54.8235 208.474 53.1413 211.601 53.1413C215.789 53.1413 217.302 54.1738 219.593 55.7365C224.808 59.2949 229.929 60.6412 232.398 60.6412H247.602C250.163 60.6412 255.27 59.2417 260.407 55.7365C262.698 54.1738 264.211 53.1413 268.399 53.1413C271.525 53.1413 274.783 54.8235 278.081 58.1414C289.052 69.1793 296.593 94.1292 296.499 109.618C296.465 115.229 295.215 120.891 292.497 120.891C290.734 120.891 285.574 119.765 275.76 109.34C269.06 102.223 259.902 98.1406 250.634 98.1406H229.367C220.257 98.1406 211.19 102.223 204.49 109.34C194.676 119.765 189.342 120.891 187.504 120.891C184.786 120.891 183.535 115.229 183.501 109.618C183.407 94.1292 190.948 69.1793 201.919 58.1414Z" fill="white"/>
<path d="M202.5 83.1404H206.25V86.8903C206.25 88.9613 207.929 90.6403 210 90.6403C212.071 90.6403 213.75 88.9613 213.75 86.8903V83.1404H217.5C219.571 83.1404 221.25 81.4614 221.25 79.3904C221.25 77.3195 219.571 75.6405 217.5 75.6405H213.75V71.8905C213.75 69.8196 212.071 68.1406 210 68.1406C207.929 68.1406 206.25 69.8196 206.25 71.8905V75.6405H202.5C200.429 75.6405 198.75 77.3195 198.75 79.3904C198.75 81.4614 200.429 83.1404 202.5 83.1404Z" fill="white"/>
<path d="M269.999 75.6406C272.07 75.6406 273.749 73.9617 273.749 71.8906C273.749 69.8195 272.07 68.1406 269.999 68.1406C267.928 68.1406 266.249 69.8195 266.249 71.8906C266.249 73.9617 267.928 75.6406 269.999 75.6406Z" fill="white"/>
<path d="M269.999 90.6396C272.07 90.6396 273.749 88.9607 273.749 86.8896C273.749 84.8186 272.07 83.1396 269.999 83.1396C267.928 83.1396 266.249 84.8186 266.249 86.8896C266.249 88.9607 267.928 90.6396 269.999 90.6396Z" fill="white"/>
<path d="M262.5 83.1406C264.571 83.1406 266.25 81.4617 266.25 79.3906C266.25 77.3195 264.571 75.6406 262.5 75.6406C260.429 75.6406 258.75 77.3195 258.75 79.3906C258.75 81.4617 260.429 83.1406 262.5 83.1406Z" fill="white"/>
<path d="M277.499 83.1406C279.57 83.1406 281.249 81.4617 281.249 79.3906C281.249 77.3195 279.57 75.6406 277.499 75.6406C275.428 75.6406 273.749 77.3195 273.749 79.3906C273.749 81.4617 275.428 83.1406 277.499 83.1406Z" fill="white"/>
<path d="M232.5 83.1405H247.5C249.571 83.1405 251.25 81.4615 251.25 79.3905C251.25 77.3196 249.571 75.6406 247.5 75.6406H232.5C230.429 75.6406 228.75 77.3196 228.75 79.3905C228.75 81.4615 230.429 83.1405 232.5 83.1405Z" fill="white"/>
</g>
<path d="M97.7974 205.391V170.831H103.125L117.477 187.919L131.829 170.831H137.157V205.391H133.269V175.247L117.477 194.015L101.685 175.247V205.391H97.7974ZM147.993 205.391C146.937 205.391 145.961 205.135 145.065 204.623C144.201 204.079 143.497 203.375 142.953 202.511C142.441 201.615 142.185 200.639 142.185 199.583V177.551H146.121V199.583C146.121 200.095 146.297 200.543 146.649 200.927C147.033 201.279 147.481 201.455 147.993 201.455H164.697C165.209 201.455 165.657 201.279 166.041 200.927C166.425 200.543 166.617 200.095 166.617 199.583V177.551H170.553V199.583C170.553 200.639 170.281 201.615 169.737 202.511C169.225 203.375 168.521 204.079 167.625 204.623C166.761 205.135 165.785 205.391 164.697 205.391H147.993ZM181.32 205.391C180.264 205.391 179.288 205.135 178.392 204.623C177.528 204.079 176.824 203.375 176.28 202.511C175.768 201.615 175.512 200.639 175.512 199.583V168.431H179.448V199.583C179.448 200.095 179.624 200.543 179.976 200.927C180.36 201.279 180.808 201.455 181.32 201.455H186.024V205.391H181.32ZM195.852 205.391C194.764 205.391 193.772 205.135 192.876 204.623C192.012 204.079 191.324 203.375 190.812 202.511C190.3 201.615 190.044 200.639 190.044 199.583V168.431H193.98V177.551H206.028V181.487H193.98V199.583C193.98 200.095 194.156 200.543 194.508 200.927C194.892 201.279 195.34 201.455 195.852 201.455H206.028V205.391H195.852ZM209.918 205.391V177.551H213.854V205.391H209.918ZM209.918 172.367V168.431H213.854V172.367H209.918ZM218.78 216.431V177.551H241.34C242.396 177.551 243.356 177.823 244.22 178.367C245.116 178.879 245.82 179.583 246.332 180.479C246.876 181.343 247.148 182.303 247.148 183.359V199.583C247.148 200.639 246.876 201.615 246.332 202.511C245.82 203.375 245.116 204.079 244.22 204.623C243.356 205.135 242.396 205.391 241.34 205.391H222.716V216.431H218.78ZM224.636 201.455H241.34C241.852 201.455 242.284 201.279 242.635 200.927C243.02 200.543 243.212 200.095 243.212 199.583V183.359C243.212 182.847 243.02 182.415 242.635 182.063C242.284 181.679 241.852 181.487 241.34 181.487H224.636C224.124 181.487 223.676 181.679 223.292 182.063C222.908 182.415 222.716 182.847 222.716 183.359V199.583C222.716 200.095 222.908 200.543 223.292 200.927C223.676 201.279 224.124 201.455 224.636 201.455ZM256.367 205.391C255.311 205.391 254.335 205.135 253.439 204.623C252.575 204.079 251.871 203.375 251.327 202.511C250.815 201.615 250.559 200.639 250.559 199.583V168.431H254.495V199.583C254.495 200.095 254.671 200.543 255.023 200.927C255.407 201.279 255.855 201.455 256.367 201.455H261.071V205.391H256.367ZM270.382 205.391C269.326 205.391 268.35 205.135 267.454 204.623C266.59 204.079 265.886 203.375 265.342 202.511C264.83 201.615 264.574 200.639 264.574 199.583V189.503H288.958V183.359C288.958 182.847 288.766 182.415 288.382 182.063C288.03 181.679 287.598 181.487 287.086 181.487H264.574V177.551H287.086C288.174 177.551 289.15 177.823 290.014 178.367C290.91 178.879 291.614 179.583 292.126 180.479C292.67 181.343 292.942 182.303 292.942 183.359V205.391H270.382ZM270.382 201.455H288.958V193.439H268.51V199.583C268.51 200.095 268.686 200.543 269.038 200.927C269.422 201.279 269.87 201.455 270.382 201.455ZM302.558 216.431V212.447H319.934C320.446 212.447 320.878 212.255 321.23 211.871C321.614 211.519 321.806 211.087 321.806 210.575V205.391H303.23C302.174 205.391 301.198 205.135 300.302 204.623C299.438 204.079 298.734 203.375 298.19 202.511C297.678 201.615 297.422 200.639 297.422 199.583V177.647H301.358V199.583C301.358 200.095 301.534 200.543 301.886 200.927C302.27 201.279 302.718 201.455 303.23 201.455H319.934C320.446 201.455 320.878 201.279 321.23 200.927C321.614 200.543 321.806 200.095 321.806 199.583V177.647H325.742V210.575C325.742 211.663 325.486 212.639 324.974 213.503C324.462 214.399 323.758 215.103 322.862 215.615C321.998 216.159 321.022 216.431 319.934 216.431H302.558ZM335.584 205.391C334.528 205.391 333.552 205.135 332.656 204.623C331.792 204.079 331.088 203.375 330.544 202.511C330.032 201.615 329.776 200.639 329.776 199.583V183.359C329.776 182.303 330.032 181.343 330.544 180.479C331.088 179.583 331.792 178.879 332.656 178.367C333.552 177.823 334.528 177.551 335.584 177.551H352.288C353.376 177.551 354.352 177.823 355.216 178.367C356.112 178.879 356.816 179.583 357.328 180.479C357.872 181.343 358.144 182.303 358.144 183.359V193.439H333.712V199.583C333.712 200.095 333.888 200.543 334.24 200.927C334.624 201.279 335.072 201.455 335.584 201.455H358.144V205.391H335.584ZM333.712 189.503H354.16V183.359C354.16 182.847 353.968 182.415 353.584 182.063C353.232 181.679 352.8 181.487 352.288 181.487H335.584C335.072 181.487 334.624 181.679 334.24 182.063C333.888 182.415 333.712 182.847 333.712 183.359V189.503ZM362.824 205.391V183.359C362.824 182.303 363.08 181.343 363.592 180.479C364.136 179.583 364.84 178.879 365.704 178.367C366.6 177.823 367.576 177.551 368.632 177.551H384.28V181.487H368.632C368.12 181.487 367.672 181.679 367.288 182.063C366.936 182.415 366.76 182.847 366.76 183.359V205.391H362.824Z" fill="white"/>
<defs>
<clipPath id="clip0_1_333">
<rect width="128" height="128" fill="white" transform="translate(176 0.390625)"/>
</clipPath>
</defs>
</svg>
