<svg width="480" height="218" viewBox="0 0 480 218" fill="none" xmlns="http://www.w3.org/2000/svg">
<g clip-path="url(#clip0_1_346)">
<path d="M240 0.390625C204.711 0.390625 176 29.1016 176 64.3905C176 99.6793 204.711 128.391 240 128.391C275.289 128.391 304 99.6793 304 64.3905C304 29.1016 275.289 0.390625 240 0.390625ZM240 117.26C210.849 117.26 187.13 93.5411 187.13 64.3905C187.13 35.2399 210.849 11.5211 240 11.5211C269.15 11.5211 292.869 35.2399 292.869 64.3905C292.869 93.5411 269.15 117.26 240 117.26Z" fill="white"/>
<path d="M269.796 34.5997C268.989 33.7871 267.77 33.5534 266.729 34.0099L227.773 50.7056C227.116 50.9839 226.593 51.5124 226.309 52.1693L209.614 91.1257C209.163 92.1721 209.397 93.3851 210.203 94.1922C210.738 94.7153 211.45 94.9991 212.173 94.9991C212.541 94.9991 212.914 94.9211 213.27 94.7766L252.226 78.0809C252.883 77.7971 253.406 77.2741 253.69 76.6172L270.386 37.6608C270.831 36.6144 270.597 35.4011 269.796 34.5997ZM240 69.9556C236.933 69.9556 234.435 67.4568 234.435 64.3905C234.435 61.324 236.933 58.8254 240 58.8254C243.066 58.8254 245.565 61.3243 245.565 64.3905C245.565 67.4568 243.066 69.9556 240 69.9556Z" fill="white"/>
</g>
<path d="M92.9614 205.391C91.9054 205.391 90.9294 205.135 90.0334 204.623C89.1694 204.111 88.4814 203.423 87.9694 202.559C87.4574 201.663 87.2014 200.687 87.2014 199.631V176.591C87.2014 175.535 87.4574 174.575 87.9694 173.711C88.4814 172.815 89.1694 172.111 90.0334 171.599C90.9294 171.087 91.9054 170.831 92.9614 170.831H116.001C117.057 170.831 118.017 171.087 118.881 171.599C119.777 172.111 120.481 172.815 120.993 173.711C121.505 174.575 121.761 175.535 121.761 176.591V199.631C121.761 200.687 121.505 201.663 120.993 202.559C120.481 203.423 119.777 204.111 118.881 204.623C118.017 205.135 117.057 205.391 116.001 205.391H92.9614ZM92.9614 201.503H116.001C116.513 201.503 116.945 201.327 117.297 200.975C117.681 200.591 117.873 200.143 117.873 199.631V176.591C117.873 176.079 117.681 175.647 117.297 175.295C116.945 174.911 116.513 174.719 116.001 174.719H92.9614C92.4494 174.719 92.0014 174.911 91.6174 175.295C91.2654 175.647 91.0894 176.079 91.0894 176.591V199.631C91.0894 200.143 91.2654 200.591 91.6174 200.975C92.0014 201.327 92.4494 201.503 92.9614 201.503ZM126.951 216.431V177.551H149.511C150.567 177.551 151.527 177.823 152.391 178.367C153.287 178.879 153.991 179.583 154.503 180.479C155.047 181.343 155.319 182.303 155.319 183.359V199.583C155.319 200.639 155.047 201.615 154.503 202.511C153.991 203.375 153.287 204.079 152.391 204.623C151.527 205.135 150.567 205.391 149.511 205.391H130.887V216.431H126.951ZM132.807 201.455H149.511C150.023 201.455 150.455 201.279 150.807 200.927C151.191 200.543 151.383 200.095 151.383 199.583V183.359C151.383 182.847 151.191 182.415 150.807 182.063C150.455 181.679 150.023 181.487 149.511 181.487H132.807C132.295 181.487 131.847 181.679 131.463 182.063C131.079 182.415 130.887 182.847 130.887 183.359V199.583C130.887 200.095 131.079 200.543 131.463 200.927C131.847 201.279 132.295 201.455 132.807 201.455ZM164.49 205.391C163.434 205.391 162.458 205.135 161.562 204.623C160.698 204.079 159.994 203.375 159.45 202.511C158.938 201.615 158.682 200.639 158.682 199.583V183.359C158.682 182.303 158.938 181.343 159.45 180.479C159.994 179.583 160.698 178.879 161.562 178.367C162.458 177.823 163.434 177.551 164.49 177.551H181.194C182.282 177.551 183.258 177.823 184.122 178.367C185.018 178.879 185.722 179.583 186.234 180.479C186.778 181.343 187.05 182.303 187.05 183.359V193.439H162.618V199.583C162.618 200.095 162.794 200.543 163.146 200.927C163.53 201.279 163.978 201.455 164.49 201.455H187.05V205.391H164.49ZM162.618 189.503H183.066V183.359C183.066 182.847 182.874 182.415 182.49 182.063C182.138 181.679 181.706 181.487 181.194 181.487H164.49C163.978 181.487 163.53 181.679 163.146 182.063C162.794 182.415 162.618 182.847 162.618 183.359V189.503ZM192.061 205.391V177.551H214.621C215.677 177.551 216.637 177.823 217.501 178.367C218.397 178.879 219.101 179.583 219.613 180.479C220.157 181.343 220.429 182.303 220.429 183.359V205.391H216.493V183.359C216.493 182.847 216.301 182.415 215.917 182.063C215.565 181.679 215.133 181.487 214.621 181.487H197.917C197.405 181.487 196.957 181.679 196.573 182.063C196.189 182.415 195.997 182.847 195.997 183.359V205.391H192.061ZM250.225 205.391L237.649 170.831H241.777L251.905 198.575L261.985 170.831H266.689L276.817 198.575L286.849 170.831H291.073L278.497 205.391H275.089L264.337 175.871L253.585 205.391H250.225ZM299.584 205.391C298.528 205.391 297.552 205.135 296.656 204.623C295.792 204.079 295.088 203.375 294.544 202.511C294.032 201.615 293.776 200.639 293.776 199.583V183.359C293.776 182.303 294.032 181.343 294.544 180.479C295.088 179.583 295.792 178.879 296.656 178.367C297.552 177.823 298.528 177.551 299.584 177.551H316.288C317.376 177.551 318.352 177.823 319.216 178.367C320.112 178.879 320.816 179.583 321.328 180.479C321.872 181.343 322.144 182.303 322.144 183.359V199.583C322.144 200.639 321.872 201.615 321.328 202.511C320.816 203.375 320.112 204.079 319.216 204.623C318.352 205.135 317.376 205.391 316.288 205.391H299.584ZM299.584 201.455H316.288C316.8 201.455 317.232 201.279 317.584 200.927C317.968 200.543 318.16 200.095 318.16 199.583V183.359C318.16 182.847 317.968 182.415 317.584 182.063C317.232 181.679 316.8 181.487 316.288 181.487H299.584C299.072 181.487 298.624 181.679 298.24 182.063C297.888 182.415 297.712 182.847 297.712 183.359V199.583C297.712 200.095 297.888 200.543 298.24 200.927C298.624 201.279 299.072 201.455 299.584 201.455ZM326.59 205.391V183.359C326.59 182.303 326.846 181.343 327.358 180.479C327.902 179.583 328.606 178.879 329.47 178.367C330.366 177.823 331.342 177.551 332.398 177.551H348.046V181.487H332.398C331.886 181.487 331.438 181.679 331.054 182.063C330.702 182.415 330.526 182.847 330.526 183.359V205.391H326.59ZM356.96 205.391C355.904 205.391 354.928 205.135 354.032 204.623C353.168 204.079 352.464 203.375 351.92 202.511C351.408 201.615 351.152 200.639 351.152 199.583V168.431H355.088V199.583C355.088 200.095 355.264 200.543 355.616 200.927C356 201.279 356.448 201.455 356.96 201.455H361.664V205.391H356.96ZM370.335 205.391C369.247 205.391 368.255 205.135 367.359 204.623C366.495 204.079 365.791 203.375 365.247 202.511C364.735 201.615 364.479 200.639 364.479 199.583V183.359C364.479 182.303 364.735 181.343 365.247 180.479C365.791 179.583 366.495 178.879 367.359 178.367C368.255 177.823 369.247 177.551 370.335 177.551H388.911V168.431H392.847V205.391H370.335ZM370.335 201.455H387.039C387.551 201.455 387.983 201.279 388.335 200.927C388.719 200.543 388.911 200.095 388.911 199.583V183.359C388.911 182.847 388.719 182.415 388.335 182.063C387.983 181.679 387.551 181.487 387.039 181.487H370.335C369.823 181.487 369.375 181.679 368.991 182.063C368.639 182.415 368.463 182.847 368.463 183.359V199.583C368.463 200.095 368.639 200.543 368.991 200.927C369.375 201.279 369.823 201.455 370.335 201.455Z" fill="white"/>
<defs>
<clipPath id="clip0_1_346">
<rect width="128" height="128" fill="white" transform="translate(176 0.390625)"/>
</clipPath>
</defs>
</svg>
