<svg width="480" height="186" viewBox="0 0 480 186" fill="none" xmlns="http://www.w3.org/2000/svg">
<g clip-path="url(#clip0_1_321)">
<path d="M240 119.057C209.856 119.057 185.333 94.5343 185.333 64.3903C185.333 34.2463 209.856 9.72363 240 9.72363C270.144 9.72363 294.666 34.2463 294.666 64.3903C294.666 94.5343 270.144 119.057 240 119.057ZM240 20.3903C215.738 20.3903 196 40.1289 196 64.3903C196 88.6516 215.738 108.391 240 108.391C264.261 108.391 284 88.6516 284 64.3903C284 40.1289 264.261 20.3903 240 20.3903Z" fill="white"/>
<path d="M240 29.7239C237.056 29.7239 234.667 27.3346 234.667 24.3906V5.72396C234.667 2.77996 237.056 0.390625 240 0.390625C242.944 0.390625 245.334 2.77996 245.334 5.72396V24.3906C245.334 27.3346 242.944 29.7239 240 29.7239Z" fill="white"/>
<path d="M298.667 69.7243H280C277.056 69.7243 274.667 67.3349 274.667 64.3909C274.667 61.4469 277.056 59.0576 280 59.0576H298.667C301.611 59.0576 304 61.4469 304 64.3909C304 67.3349 301.611 69.7243 298.667 69.7243Z" fill="white"/>
<path d="M240 128.391C237.056 128.391 234.667 126.002 234.667 123.058V104.391C234.667 101.447 237.056 99.0576 240 99.0576C242.944 99.0576 245.334 101.447 245.334 104.391V123.058C245.334 126.002 242.944 128.391 240 128.391Z" fill="white"/>
<path d="M200 69.7243H181.333C178.389 69.7243 176 67.3349 176 64.3909C176 61.4469 178.389 59.0576 181.333 59.0576H200C202.944 59.0576 205.333 61.4469 205.333 64.3909C205.333 67.3349 202.944 69.7243 200 69.7243Z" fill="white"/>
<path d="M240 80.3906C231.179 80.3906 224 73.2119 224 64.3906C224 55.5693 231.179 48.3906 240 48.3906C248.821 48.3906 256 55.5693 256 64.3906C256 73.2119 248.821 80.3906 240 80.3906ZM240 59.0573C237.061 59.0573 234.667 61.4519 234.667 64.3906C234.667 67.3293 237.061 69.7239 240 69.7239C242.939 69.7239 245.333 67.3293 245.333 64.3906C245.333 61.4519 242.939 59.0573 240 59.0573Z" fill="white"/>
</g>
<path d="M84.2158 173.391C83.1598 173.391 82.1838 173.135 81.2878 172.623C80.4238 172.111 79.7358 171.423 79.2238 170.559C78.7118 169.663 78.4558 168.687 78.4558 167.631V166.287H82.3438V167.631C82.3438 168.143 82.5198 168.591 82.8718 168.975C83.2558 169.327 83.7038 169.503 84.2158 169.503H107.256C107.768 169.503 108.2 169.327 108.552 168.975C108.936 168.591 109.128 168.143 109.128 167.631V159.903C109.128 159.391 108.936 158.959 108.552 158.607C108.2 158.255 107.768 158.079 107.256 158.079H84.2158C83.1598 158.079 82.1838 157.823 81.2878 157.311C80.4238 156.767 79.7358 156.063 79.2238 155.199C78.7118 154.335 78.4558 153.375 78.4558 152.319V144.591C78.4558 143.535 78.7118 142.575 79.2238 141.711C79.7358 140.815 80.4238 140.111 81.2878 139.599C82.1838 139.087 83.1598 138.831 84.2158 138.831H107.256C108.312 138.831 109.272 139.087 110.136 139.599C111.032 140.111 111.736 140.815 112.248 141.711C112.76 142.575 113.016 143.535 113.016 144.591V145.935H109.128V144.591C109.128 144.079 108.936 143.647 108.552 143.295C108.2 142.911 107.768 142.719 107.256 142.719H84.2158C83.7038 142.719 83.2558 142.911 82.8718 143.295C82.5198 143.647 82.3438 144.079 82.3438 144.591V152.319C82.3438 152.831 82.5198 153.263 82.8718 153.615C83.2558 153.967 83.7038 154.143 84.2158 154.143H107.256C108.312 154.143 109.272 154.415 110.136 154.959C111.032 155.471 111.736 156.159 112.248 157.023C112.76 157.887 113.016 158.847 113.016 159.903V167.631C113.016 168.687 112.76 169.663 112.248 170.559C111.736 171.423 111.032 172.111 110.136 172.623C109.272 173.135 108.312 173.391 107.256 173.391H84.2158ZM118.069 173.391V145.551H154.837C155.925 145.551 156.901 145.823 157.765 146.367C158.661 146.879 159.365 147.583 159.877 148.479C160.389 149.343 160.645 150.303 160.645 151.359V173.391H156.757V151.359C156.757 150.847 156.565 150.415 156.181 150.063C155.797 149.679 155.349 149.487 154.837 149.487H143.269C142.757 149.487 142.309 149.679 141.925 150.063C141.573 150.415 141.397 150.847 141.397 151.359V173.391H137.413V151.359C137.413 150.847 137.221 150.415 136.837 150.063C136.485 149.679 136.053 149.487 135.541 149.487H123.925C123.413 149.487 122.965 149.679 122.581 150.063C122.229 150.415 122.053 150.847 122.053 151.359V173.391H118.069ZM170.654 173.391C169.598 173.391 168.622 173.135 167.726 172.623C166.862 172.079 166.158 171.375 165.614 170.511C165.102 169.615 164.846 168.639 164.846 167.583V151.359C164.846 150.303 165.102 149.343 165.614 148.479C166.158 147.583 166.862 146.879 167.726 146.367C168.622 145.823 169.598 145.551 170.654 145.551H187.358C188.446 145.551 189.422 145.823 190.286 146.367C191.182 146.879 191.886 147.583 192.398 148.479C192.942 149.343 193.214 150.303 193.214 151.359V167.583C193.214 168.639 192.942 169.615 192.398 170.511C191.886 171.375 191.182 172.079 190.286 172.623C189.422 173.135 188.446 173.391 187.358 173.391H170.654ZM170.654 169.455H187.358C187.87 169.455 188.302 169.279 188.654 168.927C189.038 168.543 189.23 168.095 189.23 167.583V151.359C189.23 150.847 189.038 150.415 188.654 150.063C188.302 149.679 187.87 149.487 187.358 149.487H170.654C170.142 149.487 169.694 149.679 169.31 150.063C168.958 150.415 168.782 150.847 168.782 151.359V167.583C168.782 168.095 168.958 168.543 169.31 168.927C169.694 169.279 170.142 169.455 170.654 169.455ZM202.951 173.391C201.895 173.391 200.919 173.135 200.023 172.623C199.159 172.079 198.455 171.375 197.911 170.511C197.399 169.615 197.143 168.639 197.143 167.583V151.359C197.143 150.303 197.399 149.343 197.911 148.479C198.455 147.583 199.159 146.879 200.023 146.367C200.919 145.823 201.895 145.551 202.951 145.551H219.655C220.743 145.551 221.719 145.823 222.583 146.367C223.479 146.879 224.183 147.583 224.695 148.479C225.239 149.343 225.511 150.303 225.511 151.359V167.583C225.511 168.639 225.239 169.615 224.695 170.511C224.183 171.375 223.479 172.079 222.583 172.623C221.719 173.135 220.743 173.391 219.655 173.391H202.951ZM202.951 169.455H219.655C220.167 169.455 220.599 169.279 220.951 168.927C221.335 168.543 221.527 168.095 221.527 167.583V151.359C221.527 150.847 221.335 150.415 220.951 150.063C220.599 149.679 220.167 149.487 219.655 149.487H202.951C202.439 149.487 201.991 149.679 201.607 150.063C201.255 150.415 201.079 150.847 201.079 151.359V167.583C201.079 168.095 201.255 168.543 201.607 168.927C201.991 169.279 202.439 169.455 202.951 169.455ZM235.157 173.391C234.069 173.391 233.077 173.135 232.181 172.623C231.317 172.079 230.629 171.375 230.117 170.511C229.605 169.615 229.349 168.639 229.349 167.583V136.431H233.285V145.551H245.333V149.487H233.285V167.583C233.285 168.095 233.461 168.543 233.813 168.927C234.197 169.279 234.645 169.455 235.157 169.455H245.333V173.391H235.157ZM249.319 173.391V136.431H253.255V145.551H271.879C272.935 145.551 273.895 145.823 274.759 146.367C275.655 146.879 276.359 147.583 276.871 148.479C277.415 149.343 277.687 150.303 277.687 151.359V173.391H273.751V151.359C273.751 150.847 273.559 150.415 273.175 150.063C272.823 149.679 272.391 149.487 271.879 149.487H255.175C254.663 149.487 254.215 149.679 253.831 150.063C253.447 150.415 253.255 150.847 253.255 151.359V173.391H249.319ZM294.651 173.391V138.831H326.187V142.719H298.539V154.143H320.763V158.079H298.539V173.391H294.651ZM329.243 173.391V138.879H358.043C359.099 138.879 360.059 139.151 360.923 139.695C361.819 140.207 362.523 140.895 363.035 141.759C363.547 142.623 363.803 143.583 363.803 144.639V154.767C363.803 155.823 363.547 156.783 363.035 157.647C362.523 158.511 361.819 159.215 360.923 159.759C360.059 160.271 359.099 160.527 358.043 160.527H333.131V173.391H329.243ZM335.003 156.591H358.043C358.555 156.591 358.987 156.415 359.339 156.063C359.723 155.711 359.915 155.279 359.915 154.767V144.639C359.915 144.127 359.723 143.695 359.339 143.343C358.987 142.959 358.555 142.767 358.043 142.767H335.003C334.491 142.767 334.043 142.959 333.659 143.343C333.307 143.695 333.131 144.127 333.131 144.639V154.767C333.131 155.279 333.307 155.711 333.659 156.063C334.043 156.415 334.491 156.591 335.003 156.591ZM372.731 173.391C371.675 173.391 370.699 173.135 369.803 172.623C368.939 172.111 368.251 171.423 367.739 170.559C367.227 169.663 366.971 168.687 366.971 167.631V166.287H370.859V167.631C370.859 168.143 371.035 168.591 371.387 168.975C371.771 169.327 372.219 169.503 372.731 169.503H395.771C396.283 169.503 396.715 169.327 397.067 168.975C397.451 168.591 397.643 168.143 397.643 167.631V159.903C397.643 159.391 397.451 158.959 397.067 158.607C396.715 158.255 396.283 158.079 395.771 158.079H372.731C371.675 158.079 370.699 157.823 369.803 157.311C368.939 156.767 368.251 156.063 367.739 155.199C367.227 154.335 366.971 153.375 366.971 152.319V144.591C366.971 143.535 367.227 142.575 367.739 141.711C368.251 140.815 368.939 140.111 369.803 139.599C370.699 139.087 371.675 138.831 372.731 138.831H395.771C396.827 138.831 397.787 139.087 398.651 139.599C399.547 140.111 400.251 140.815 400.763 141.711C401.275 142.575 401.531 143.535 401.531 144.591V145.935H397.643V144.591C397.643 144.079 397.451 143.647 397.067 143.295C396.715 142.911 396.283 142.719 395.771 142.719H372.731C372.219 142.719 371.771 142.911 371.387 143.295C371.035 143.647 370.859 144.079 370.859 144.591V152.319C370.859 152.831 371.035 153.263 371.387 153.615C371.771 153.967 372.219 154.143 372.731 154.143H395.771C396.827 154.143 397.787 154.415 398.651 154.959C399.547 155.471 400.251 156.159 400.763 157.023C401.275 157.887 401.531 158.847 401.531 159.903V167.631C401.531 168.687 401.275 169.663 400.763 170.559C400.251 171.423 399.547 172.111 398.651 172.623C397.787 173.135 396.827 173.391 395.771 173.391H372.731Z" fill="white"/>
<defs>
<clipPath id="clip0_1_321">
<rect width="128" height="128" fill="white" transform="translate(176 0.390625)"/>
</clipPath>
</defs>
</svg>
